<?xml version="1.0" encoding="UTF-8"?>
<svg id="Calque_1" data-name="Calque 1" xmlns="http://www.w3.org/2000/svg" viewBox="0 0 1920 516.32">
  <defs>
    <style>
      .cls-1 {
        fill: #8dced8;
      }

      .cls-1, .cls-2 {
        stroke-width: 0px;
      }

      .cls-2 {
        fill: #faf9e1;
      }
    </style>
  </defs>
  <g id="Calque_1-2" data-name="Calque 1-2">
    <g>
      <g id="Calque_1-2-2" data-name="Calque 1-2">
        <polygon class="cls-1" points="1579.11 515.3 1548.75 515.36 1518.39 504.6 1488.04 509.76 1457.64 511.25 1427.29 505.34 1396.93 513.06 1366.54 505.06 1336.18 505.06 1305.82 506.59 1275.46 512.9 1245.1 504.44 1214.71 503.82 1184.35 508.67 1153.99 510.35 1123.63 515.05 1093.24 507.43 1062.88 511.5 1032.52 514.86 1002.13 507.05 971.77 508.39 941.41 507.02 911.06 513.03 880.66 515.86 850.31 516.32 819.95 512.78 789.56 509.82 759.2 505 728.81 506.99 698.45 503.29 668.06 511.44 637.7 505.19 607.34 505.03 576.95 513.31 546.59 504.41 516.23 511.32 485.84 512.59 455.45 513.71 425.09 507.05 394.73 508.64 364.34 507.86 333.95 506.74 302.41 515.98 271.9 509.57 241.38 504.57 211.8 496.98 189.53 477.88 157.52 474.02 128.65 464.1 105.67 447.95 85.98 429.51 72.88 407.67 49.71 391.68 35.49 371 19.04 350.87 22.77 325.58 13.03 304 11.45 281.26 1.8 258.68 0 258.68 8.62 235.87 15.52 213.67 11.6 189.34 24.42 168.03 37.92 147.25 50.39 125.98 70.95 108.56 81.75 84.89 109.83 72.85 138.33 62.86 155.16 40.41 183.74 30.67 210.52 17.82 243.43 18.2 272.95 12.04 302.5 2.02 333.95 1.21 364.31 .62 394.67 5.63 425.06 10.39 455.42 4.32 485.78 11.7 516.17 9.55 546.53 11.98 576.89 11.85 607.28 1.4 637.64 1.03 668 4.14 698.35 11.54 728.71 3.83 759.1 2.68 789.46 5.41 819.82 9.46 850.18 13.19 880.57 1.09 910.93 3.33 941.29 8.18 971.68 8.62 1002.04 10.7 1032.4 8.15 1062.79 1.68 1093.15 10.79 1123.51 0 1153.9 13.84 1184.26 9.05 1214.62 13.38 1245.01 1.49 1275.4 8.55 1305.76 1.37 1336.11 14.31 1366.5 10.89 1396.86 10.67 1427.22 3.11 1457.61 3.83 1488 10.95 1518.36 12.66 1548.75 7.19 1579.11 4.29 1610.59 1.99 1639.33 15.21 1668.32 21.74 1700.52 21.87 1728.89 31.32 1756.14 42.61 1776.45 61.15 1809.08 68.03 1820.18 92.6 1842.89 108.15 1864.57 125.11 1873.59 147.85 1882.46 169.87 1891.23 191.55 1909.52 211.99 1915.93 235.07 1913.06 258.68 1920 258.68 1909.36 281.79 1908.96 305.27 1905.5 328.85 1882.61 347.51 1872.56 369.07 1860.77 390.47 1840.93 408.08 1827.55 429.82 1807.21 447.77 1778.44 458.16 1754.05 472.18 1724.59 479.46 1702.23 498.84 1670.94 502.51 1641.26 509.88 1609.81 508.8 1579.11 515.3"/>
      </g>
      <g>
        <path class="cls-2" d="M562.33,316.78c-3.02.16-6.22.34-9.58.5-3.86.5-5.97.75-6.31.75-4.88,0-11.35-5.54-19.41-16.64-2.68-5.88-5.79-11.73-9.33-17.51-3.51-5.79-7.71-11.63-12.6-17.51-2.86-3.51-6.69-7.9-11.48-13.1-4.79-5.19-10.64-11.32-17.51-18.38-5.54,0-10.82-.09-15.86-.25-5.04-.16-9.74-.5-14.12-1-.34,38.14.84,59.88,3.51,65.26.16.16-.34,1.28-1.52,3.27-.34.5-4.11.93-11.35,1.28l3.27,5.79c13.59-3.02,21.49-4.54,23.67-4.54,5.19,1.52,7.81,3.45,7.81,5.79,0,4.04-1.77,6.03-5.29,6.03-13.44-1.52-23.42-2.27-29.99-2.27-1.18,0-2.61.22-4.29.62-1.68.4-3.39.87-5.16,1.4s-3.45.96-5.04,1.4c-1.59.4-2.89.62-3.92.62h-2.52c-.84,0-1.68-.09-2.52-.25l-10.58-1.77c-4.54,0-6.81-1.84-6.81-5.54,0-2.68,2.43-4.79,7.31-6.28,1.34-.5,2.89-1.09,4.67-1.77,1.77-.65,3.73-1.52,5.91-2.52,3.36-3.36,5.04-16.64,5.04-39.82v-57.2c0-25.04-.84-39.63-2.52-43.83-1-2.52-2.52-4.04-4.54-4.54,0-1.34-2.77-2.77-8.31-4.29l-6.03-8.8c3.86.16,7.71.25,11.6.25h12.6c6.03,0,15.62-.5,28.71-1.52,6.38-.5,11.98-.93,16.77-1.28s8.77-.5,11.98-.5c13.78,0,26.53,2.12,38.29,6.31,14.12,5.19,24.11,13.03,29.99,23.42,3.36,5.88,5.04,11.85,5.04,17.89,0,20.16-13.87,35.03-41.59,44.61,1.68,2.36,3.92,5.69,6.69,9.98s6.1,9.64,9.95,16.05c3.36,5.91,6.38,10.92,9.08,15.02,2.68,4.14,4.95,7.12,6.81,8.96,6.72,7.4,11.6,14.59,14.62,21.49.84,1.87,4.45,3.05,10.82,3.55,4.04.34,6.03,2.36,6.03,6.07,0,1.9-1.18,3.33-3.51,4.29-2.68.16-5.54.34-8.55.5l.09.03ZM473.37,150.74l-3.51,4.04c-2.68,2.36-4.63,3.51-5.79,3.51-.84,0-1.84-.25-3.02-.75-5.88-3.7-9.43-4.45-10.58-2.27-1.84,4.04-2.96,25.63-3.27,64.76,6.22,1,13.69,1.52,22.43,1.52,34.59,0,51.92-10.67,51.92-32.01,0-5.04-1.68-10.67-5.04-16.89-8.55-14.62-22.92-21.93-43.08-21.93h-.06Z"/>
        <path class="cls-2" d="M608.18,275.69c.16,4.54,1.93,8.55,5.29,12.1,6.56,7.9,16.89,11.85,30.98,11.85,9.74,0,21.09-3.7,34-11.07l9.83,2.02c-6.87,6.87-15.62,12.6-26.19,17.14-11.42,5.04-21.59,7.56-30.48,7.56-14.78,0-27.06-4.45-36.8-13.34-9.58-9.08-14.37-21.09-14.37-36.02s4.79-28.71,14.37-39.82c10.23-11.76,23.08-17.64,38.54-17.64,29.24,0,47.03,12.01,53.41,36.02l.75,14.87c-9.08,1.34-17.51,2.27-25.32,2.77-7.81.5-15.15.75-22.05.75-4.7,0-8.9-.09-12.6-.25s-6.87-.4-9.58-.75l-10.58-1.52.75,15.37.06-.03ZM651.26,224.55c-1.18-.34-3.36-.25-6.56.25-2.02.34-3.86.59-5.54.75-1.68.16-3.2.25-4.54.25-15.27,0-24.2,7.56-26.72,22.68l18.13-4.04c.5.5,2.43,1.09,5.79,1.77,5.04,1.18,9.24,1.93,12.6,2.27,10.42.34,17.05,0,19.91-1-2.18-11.91-6.56-19.57-13.1-22.92h.03ZM626.06,244.46l1.28-.25c-.84,0-1.28.09-1.28.25Z"/>
        <path class="cls-2" d="M782.78,312.24c-3.86.84-7.31,1.4-10.33,1.65s-5.72.37-8.06.37c-6.22,0-12.94-.84-20.16-2.52l-.75,24.7-.5,13.84c-.34,7.9.4,12.5,2.27,13.87.34.34,1.71,1.06,4.17,2.15,2.43,1.09,5.91,2.64,10.45,4.67,6.72,2.68,10.23,5.88,10.58,9.58,0,2.18-1.18,3.27-3.51,3.27-1.68,0-3.86-.5-6.56-1.52-7.06-2.52-15.55-5.41-25.44-8.68-9.92-3.27-21.25-7.03-34.03-11.2-.16-1.84-.4-3.64-.75-5.41s-.68-3.48-1-5.16l8.8,2.77c.34.16.75.25,1.24.25h1.77c2.02,0,3.36-.68,4.04-2.02l2.27-1.28c.34-.68.65-2.15,1-4.42.34-2.27.5-5.41.5-9.46l.5-38.04v-14.37c0-6.38-.09-14.43-.25-24.2-.16-6.72-.34-12.01-.5-15.86s-.4-6.38-.75-7.56c-1.34-5.38-3.95-8.06-7.81-8.06-.16,0-4.7,1.43-13.59,4.29l-3.27-9.33c3.36-1.68,6.25-3.05,8.68-4.17,2.43-1.09,4.23-1.8,5.41-2.15,3.02,0,8.49-2.43,16.36-7.31,7.4-4.35,12.44-7.96,15.12-10.82,1,2.86,2.02,8.55,3.02,17.14l1.77,18.13c3.02-9.39,9.58-16.45,19.66-21.15,6.87-3.2,14.68-4.79,23.42-4.79,14.78,0,27.22,4.54,37.3,13.59,10.76,9.39,16.11,21.4,16.11,36.02,0,11.26-3.11,20.59-9.33,27.96-10.42,12.75-26.38,21.15-47.87,25.2v.03ZM782.65,226.82c-3.45-1.18-6.94-1.77-10.45-1.77s-7.65,1.18-11.85,3.51c-7.06,3.86-12.6,10.17-16.64,18.88l-.25,45.1c9.58,2.52,17.17,4.45,22.8,5.79,5.63,1.34,9.52,2.02,11.73,2.02,6.56,0,12.38-1.06,17.51-3.14,5.13-2.08,9.77-5.32,14-9.7,4.2-4.35,6.31-10.17,6.31-17.39,0-15.27-7.56-27.96-22.68-38.04-3.51-2.36-7.03-4.11-10.45-5.29l-.03.03Z"/>
        <path class="cls-2" d="M931.3,230.34c-1.43,1.18-2.55,2.18-3.39,3.02-2.02,1.34-3.83,2.3-5.41,2.89-1.59.59-3.08,1.06-4.42,1.4,0-.84.93-2.77,2.77-5.79,1.84-3.02,4.54-7.4,8.06-13.1l-.25-.25c-7.56,6.22-11.51,9.39-11.85,9.58-6.03,0-12.44,2.52-19.16,7.56-2.36,1.52-3.61,3.02-3.76,4.54l-.25,7.06-1.28,22.92c-.5,15.3.4,25.2,2.77,29.74,1.34,1,3.45,1.43,6.28,1.24l4.29-.5h13.34l-1,11.85c1.34,0,.65,0-2.02,0s-7.31.09-13.87.25l-54.43,1.52.5-9.83c3.36-.5,6.1-.96,8.18-1.4,2.08-.4,3.58-.87,4.42-1.4,3.36-1.52,5.54-7.47,6.56-17.89.16-2.86.28-6.69.37-11.48s.12-10.61.12-17.51c0-10.58-.59-17.14-1.77-19.66-1-2.02-3.45-3.02-7.31-3.02-.34,0-.75.28-1.28.87-.5.59-1.06,1.21-1.65,1.9s-1.18,1.31-1.77,1.9-.96.87-1.12.87l-6.56-14.37c18.48,0,34.03-7.31,46.63-21.93.5,7.56.75,14.78.75,21.68,1.84-.84,3.98-1.84,6.44-3.02,2.43-1.18,5.16-2.52,8.18-4.04.84-.34,2.27-.93,4.29-1.77l7.56-3.51c1.84-.84,3.58-1.71,5.16-2.64,1.59-.93,3.08-1.8,4.42-2.64l3.02,1.52c1,.5,2.4,1.21,4.17,2.15s3.83,2.15,6.16,3.64c2.36,2.36,3.51,5.38,3.51,9.08,0,1.68-1.18,2.68-3.51,3.02-3.2.16-5.54.59-7.06,1.28-1.87,1.68-3.48,3.11-4.91,4.29l.09-.03Z"/>
        <path class="cls-2" d="M979.3,275.69c.16,4.54,1.93,8.55,5.29,12.1,6.56,7.9,16.89,11.85,30.98,11.85,9.74,0,21.09-3.7,34-11.07l9.83,2.02c-6.87,6.87-15.62,12.6-26.19,17.14-11.42,5.04-21.59,7.56-30.48,7.56-14.78,0-27.06-4.45-36.8-13.34-9.58-9.08-14.37-21.09-14.37-36.02s4.79-28.71,14.37-39.82c10.23-11.76,23.08-17.64,38.54-17.64,29.24,0,47.03,12.01,53.41,36.02l.75,14.87c-9.08,1.34-17.51,2.27-25.32,2.77-7.81.5-15.15.75-22.05.75-4.7,0-8.9-.09-12.6-.25s-6.87-.4-9.58-.75l-10.58-1.52.75,15.37.06-.03ZM1022.38,224.55c-1.18-.34-3.36-.25-6.56.25-2.02.34-3.86.59-5.54.75-1.68.16-3.2.25-4.54.25-15.27,0-24.2,7.56-26.72,22.68l18.13-4.04c.5.5,2.43,1.09,5.79,1.77,5.04,1.18,9.24,1.93,12.6,2.27,10.42.34,17.05,0,19.91-1-2.18-11.91-6.56-19.57-13.1-22.92h.03ZM997.19,244.46l1.28-.25c-.84,0-1.28.09-1.28.25Z"/>
        <path class="cls-2" d="M1167.65,312.99c-5.79.34-12.38.75-19.78,1.24v-9.83c10.92-2.36,17.05-4.45,18.38-6.31,2.36-4.2,3.51-16.8,3.51-37.79,0-4.04-.09-7.56-.25-10.58-.16-3.02-.44-5.69-.75-8.06-1.52-9.74-8.24-14.62-20.16-14.62s-23.52,2.68-36.27,8.06l-1,32.26c-.34,19.66.16,30.23,1.52,31.76,1.18,1.68,7.9,3.02,20.16,4.04l-.75,10.58c-13.59-1-23.52-1.52-29.74-1.52h-37.54l-.75-9.58c10.92-1.52,17.14-3.27,18.63-5.29,2.18-3.2,3.27-17.05,3.27-41.59,0-15.12-1.34-23.08-4.04-23.92,0,.5-2.96.59-8.8.25.34-.68.5-1.09.5-1.28s-.16-.4-.5-.75c.84-1.34,1.84-2.86,3.02-4.54,1.18-1.68,2.68-3.51,4.54-5.54,7.9-4.88,13.1-7.9,15.62-9.08,4.7-2.02,7.65-3.02,8.8-3.02,4.2,0,6.56,4.88,7.06,14.62,19.47-8.74,35.12-13.1,46.88-13.1,8.55,0,15.96,1.59,22.18,4.79,8.06,4.2,12.1,10.33,12.1,18.38,0,1-.12,2.3-.37,3.89s-.5,3.27-.75,5.04-.5,3.45-.75,5.04-.37,2.83-.37,3.64.03,1.71.12,2.64c.09.93.22,1.9.37,2.89l4.54,13.59c.84,2.18,1.24,5.88,1.24,11.07,0,2.36-.09,4.57-.25,6.69s-.4,4.32-.75,6.69c-.5,4.2-.68,6.38-.5,6.56,2.33.5,4.95,1.09,7.81,1.77s5.97,1.43,9.33,2.27l.75,9.83c-5.19-.5-10.36-.93-15.49-1.24-5.13-.34-10.3-.5-15.49-.5-4.39,0-9.46.16-15.24.5l-.06.03Z"/>
        <path class="cls-2" d="M1316.92,286.02c-5.04,18.32-20.06,27.47-45.1,27.47-14.12,0-26.13-3.95-36.02-11.85-10.58-8.06-15.86-19.16-15.86-33.25,0-12.44,3.45-22.68,10.33-30.73,10.92-13.44,26.53-22.43,46.88-26.97,3.86-.84,7-1.52,9.46-2.02,2.43-.5,4.32-.75,5.66-.75,6.03,0,15.21,1.18,27.47,3.51,0,1.18.16,2.12.5,2.77v-17.39c-.16-2.18-.5-4.42-1-6.69-.5-2.27-1.18-4.76-2.02-7.43-1-.34-2.43-.5-4.29-.5-1.34,0-3.08.12-5.16.37-2.12.25-4.76.81-7.93,1.65l-1-9.83c20.65-7.22,35.62-13.53,44.85-18.91l8.06,2.77c-.84,3.51-1.59,7.31-2.27,11.35-.68,4.04-1.28,8.31-1.77,12.85-.68,3.86-1.68,11.32-3.02,22.43l-1,64.51c-.34,6.22-.25,12.13.25,17.76.5,5.63,1.18,10.95,2.02,15.99.16.16,0,1-.5,2.52-.84,1.52-.34,2.27,1.52,2.27,1.68,0,3.45-.4,5.29-1.28v11.6c-9.92,2.86-16.98,4.29-21.15,4.29-.84,0-1.9-.31-3.14-.87-1.28-.59-2.24-.87-2.89-.87-4.35,0-7.06-11.6-8.06-34.78h-.09ZM1303.83,227.32c-4.2-.84-9.24-1.68-15.12-2.52-5.04-.5-7.9-.75-8.55-.75-4.54,0-8.87.62-12.97,1.9-4.11,1.24-7.87,3.33-11.2,6.16-7.9,5.72-11.85,12.94-11.85,21.68,0,12.94,4.11,23.27,12.35,30.98,8.06,7.56,18.63,11.32,31.76,11.32s22.83-7.71,28.71-23.17c-.16-2.52-.22-5.44-.12-8.8s.22-7.12.37-11.35l.75-19.66c0-.65-1.28-1.52-3.76-2.52-2.71-1.34-6.13-2.43-10.33-3.27h-.03Z"/>
        <path class="cls-2" d="M1443.27,230.34c-1.43,1.18-2.55,2.18-3.39,3.02-2.02,1.34-3.83,2.3-5.41,2.89-1.59.59-3.08,1.06-4.42,1.4,0-.84.93-2.77,2.77-5.79,1.84-3.02,4.54-7.4,8.06-13.1l-.25-.25c-7.56,6.22-11.51,9.39-11.85,9.58-6.03,0-12.44,2.52-19.16,7.56-2.36,1.52-3.61,3.02-3.76,4.54l-.25,7.06-1.28,22.92c-.5,15.3.4,25.2,2.77,29.74,1.34,1,3.45,1.43,6.28,1.24l4.29-.5h13.34l-1,11.85c1.34,0,.65,0-2.02,0s-7.31.09-13.87.25l-54.43,1.52.5-9.83c3.36-.5,6.1-.96,8.18-1.4,2.08-.4,3.58-.87,4.42-1.4,3.36-1.52,5.54-7.47,6.56-17.89.16-2.86.28-6.69.37-11.48s.12-10.61.12-17.51c0-10.58-.59-17.14-1.77-19.66-1-2.02-3.45-3.02-7.31-3.02-.34,0-.75.28-1.28.87-.5.59-1.06,1.21-1.65,1.9s-1.18,1.31-1.77,1.9-.96.87-1.12.87l-6.56-14.37c18.48,0,34.03-7.31,46.63-21.93.5,7.56.75,14.78.75,21.68,1.84-.84,3.98-1.84,6.44-3.02,2.43-1.18,5.16-2.52,8.18-4.04.84-.34,2.27-.93,4.29-1.77l7.56-3.51c1.84-.84,3.58-1.71,5.16-2.64,1.59-.93,3.08-1.8,4.42-2.64l3.02,1.52c1,.5,2.4,1.21,4.17,2.15s3.83,2.15,6.16,3.64c2.36,2.36,3.51,5.38,3.51,9.08,0,1.68-1.18,2.68-3.51,3.02-3.2.16-5.54.59-7.06,1.28-1.87,1.68-3.48,3.11-4.91,4.29l.09-.03Z"/>
        <path class="cls-2" d="M1491.27,275.69c.16,4.54,1.93,8.55,5.29,12.1,6.56,7.9,16.89,11.85,30.98,11.85,9.74,0,21.09-3.7,34-11.07l9.83,2.02c-6.87,6.87-15.62,12.6-26.19,17.14-11.42,5.04-21.59,7.56-30.48,7.56-14.78,0-27.06-4.45-36.8-13.34-9.58-9.08-14.37-21.09-14.37-36.02s4.79-28.71,14.37-39.82c10.23-11.76,23.08-17.64,38.54-17.64,29.24,0,47.03,12.01,53.41,36.02l.75,14.87c-9.08,1.34-17.51,2.27-25.32,2.77-7.81.5-15.15.75-22.05.75-4.7,0-8.9-.09-12.6-.25s-6.87-.4-9.58-.75l-10.58-1.52.75,15.37.06-.03ZM1534.35,224.55c-1.18-.34-3.36-.25-6.56.25-2.02.34-3.86.59-5.54.75-1.68.16-3.2.25-4.54.25-15.27,0-24.2,7.56-26.72,22.68l18.13-4.04c.5.5,2.43,1.09,5.79,1.77,5.04,1.18,9.24,1.93,12.6,2.27,10.42.34,17.05,0,19.91-1-2.18-11.91-6.56-19.57-13.1-22.92h.03ZM1509.16,244.46l1.28-.25c-.84,0-1.28.09-1.28.25Z"/>
      </g>
      <path class="cls-2" d="M177.36,167.1l-8.09-17.54-17.29-7.84,17.29-8.09,8.09-17.54,8.09,17.54,17.54,8.09-17.54,7.84s-8.09,17.54-8.09,17.54Z"/>
      <path class="cls-2" d="M267.57,272.86l-8.09-17.54-17.29-7.84,17.29-8.09,8.09-17.54,8.09,17.54,17.54,8.09-17.54,7.84-8.09,17.54Z"/>
      <path class="cls-2" d="M1709.32,179.54l-7.59-16.45-16.24-7.37,16.24-7.59,7.59-16.45,7.59,16.45,16.45,7.59-16.45,7.37-7.59,16.45Z"/>
      <path class="cls-2" d="M1684.44,282.19l-7.59-16.45-16.24-7.37,16.24-7.59,7.59-16.45,7.59,16.45,16.45,7.59-16.45,7.37-7.59,16.45Z"/>
      <path class="cls-2" d="M1734.21,359.96l-7.59-16.45-16.24-7.37,16.24-7.59,7.59-16.45,7.59,16.45,16.45,7.59-16.45,7.37-7.59,16.45Z"/>
      <path class="cls-2" d="M177.36,397.28l-8.09-17.54-17.29-7.84,17.29-8.09,8.09-17.54,8.09,17.54,17.54,8.09-17.54,7.84s-8.09,17.54-8.09,17.54Z"/>
    </g>
  </g>
</svg>