<?xml version="1.0" encoding="utf-8"?>
<!-- Generator: Adobe Illustrator 28.1.0, SVG Export Plug-In . SVG Version: 6.00 Build 0)  -->
<svg version="1.1" id="Calque_1" xmlns="http://www.w3.org/2000/svg" xmlns:xlink="http://www.w3.org/1999/xlink" x="0px" y="0px"
	 viewBox="0 0 1920 582" style="enable-background:new 0 0 1920 582;" xml:space="preserve">
<style type="text/css">
	.st0{fill:#8BCDD7;}
	.st1{fill:none;}
	.st2{fill:#F9F8E0;}
	.st3{font-family:'Immortal';}
	.st4{font-size:275.6908px;}
</style>
<g>
	<g>
		<polygon class="st0" points="1614,555.5 1541.3,550 1468.6,558.3 1396,560.7 1323.3,556.1 1250.7,554.5 1178,561.1 1105.3,549.6 
			1032.7,564.5 960,559.8 887.4,548.9 814.7,551.8 742,548.6 669.4,552.5 596.7,554.9 524,551.1 451.4,553.7 378.7,558.6 306,562.1 
			236.8,552.5 177.7,516.5 113.5,486.7 76.5,426.8 60.5,360 38.3,294.2 36.1,294.2 45.2,224.3 79.6,163.5 121.3,109.5 172.9,63.6 
			238.5,42.3 306,36.8 378.7,34.3 451.4,27.5 524,35.4 596.7,37.3 669.3,27.3 742,37.2 814.7,28.4 887.3,27.9 960,26 1032.6,37.2 
			1105.3,32.4 1178,29.5 1250.6,29.7 1323.3,33.9 1396,33.6 1468.6,32.4 1541.3,32.8 1614,26.5 1681.9,40.8 1743.7,69.6 1800.2,108 
			1845.6,160.5 1868.2,226.1 1880.6,294.2 1868.1,294.2 1864.7,361.4 1836.7,422.8 1793.8,474.1 1746.2,523.3 1683.8,554.9 		"/>
	</g>
	<rect x="564.3" y="189.8" class="st1" width="791.3" height="208.9"/>
	<text transform="matrix(1 0 0 1 582.7217 359.5986)" class="st2 st3 st4">Menu</text>
	<path class="st2" d="M469.6,344.1l-8.6-18.7l-18.4-8.4l18.4-8.6l8.6-18.7l8.6,18.7l18.7,8.6l-18.7,8.4L469.6,344.1z"/>
	<path class="st2" d="M305.8,452.9l-8.6-18.7l-18.4-8.4l18.4-8.6l8.6-18.7l8.6,18.7l18.7,8.6l-18.7,8.4L305.8,452.9z"/>
	<path class="st2" d="M333.7,170.8l-8.6-18.7l-18.4-8.4l18.4-8.6l8.6-18.7l8.6,18.7l18.7,8.6l-18.7,8.4L333.7,170.8z"/>
	<path class="st2" d="M1501.1,364.5l-8.6-18.7l-18.4-8.4l18.4-8.6l8.6-18.7l8.6,18.7l18.7,8.6l-18.7,8.4L1501.1,364.5z"/>
	<path class="st2" d="M1642.2,463.7l-8.6-18.7l-18.4-8.4l18.4-8.6l8.6-18.7l8.6,18.7l18.7,8.6l-18.7,8.4L1642.2,463.7z"/>
	<path class="st2" d="M1554.5,185l-8.6-18.7l-18.4-8.4l18.4-8.6l8.6-18.7l8.6,18.7l18.7,8.6l-18.7,8.4L1554.5,185z"/>
</g>
</svg>
