<?xml version="1.0" encoding="utf-8"?>
<!-- Generator: Adobe Illustrator 28.1.0, SVG Export Plug-In . SVG Version: 6.00 Build 0)  -->
<svg version="1.1" id="Calque_1" xmlns="http://www.w3.org/2000/svg" xmlns:xlink="http://www.w3.org/1999/xlink" x="0px" y="0px"
	 viewBox="0 0 1394 354" style="enable-background:new 0 0 1394 354;" xml:space="preserve">
<style type="text/css">
	.st0{fill:#F6BED7;}
	.st1{fill:none;}
	.st2{fill:#F9F8E0;}
	.st3{font-family:'Immortal';}
	.st4{font-size:145px;}
</style>
<g>
	<g>
		<polygon class="st0" points="1161.9,317.3 1090.4,313.6 1018.9,319.1 947.4,320.7 875.8,317.7 804.3,316.7 732.8,321 661.3,313.4 
			589.7,323.2 518.2,320.1 446.7,312.9 375.1,314.8 303.6,312.7 232.1,315.3 162.1,298.2 113.1,245.7 93,177 89.7,177 106.8,104.7 
			159.9,52 232.1,39.8 303.6,29.5 375.1,34.2 446.6,41.5 518.2,32.4 589.7,31 661.2,31 732.7,36.6 804.3,36.7 875.8,33.4 
			947.3,37.1 1018.9,39.2 1090.4,37.6 1161.9,33.1 1231.3,56.9 1281,108.3 1306,177 1299.4,177 1286,248.7 1233.7,301.4 		"/>
	</g>
	<rect x="425.6" y="124.3" class="st1" width="542.7" height="105.4"/>
	<text transform="matrix(1 0 0 1 463.1196 213.6436)" class="st2 st3 st4">Crédits</text>
</g>
</svg>
