<?xml version="1.0" encoding="UTF-8"?>
<svg id="Calque_1" data-name="Calque 1" xmlns="http://www.w3.org/2000/svg" viewBox="0 0 1024 350.18">
  <defs>
    <style>
      .cls-1 {
        fill: #f5bed7;
      }

      .cls-1, .cls-2 {
        stroke-width: 0px;
      }

      .cls-2 {
        fill: #faf9e1;
      }
    </style>
  </defs>
  <g id="Calque_1-2" data-name="Calque 1-2">
    <g>
      <g id="Calque_1-2-2" data-name="Calque 1-2">
        <polygon class="cls-1" points="842.17 349.49 825.99 349.54 809.81 342.22 793.63 345.72 777.39 346.73 761.21 342.7 745.03 347.95 728.84 342.54 712.61 342.54 696.43 343.54 680.24 347.84 664.06 342.11 647.83 341.69 631.64 344.98 615.46 346.14 599.28 349.33 583.1 344.13 566.86 346.89 550.68 349.17 534.5 343.86 518.26 344.76 502.08 343.86 485.9 347.95 469.71 349.86 453.48 350.18 437.3 347.74 421.11 345.77 404.88 342.48 388.7 343.86 372.51 341.32 356.28 346.89 340.1 342.64 323.91 342.54 307.73 348.11 291.5 342.11 275.31 346.78 259.13 347.63 242.89 348.43 226.71 343.86 210.53 344.98 194.29 344.45 178.11 343.7 161.29 349.96 145 345.61 128.72 342.16 112.96 337.07 101.07 324.13 83.99 321.47 68.6 314.73 56.35 303.8 45.84 291.28 38.89 276.48 26.53 265.66 18.94 251.6 10.13 237.96 12.15 220.82 6.95 206.18 6.1 190.74 .96 175.41 0 175.41 4.62 159.97 8.28 144.9 6.21 128.4 13.05 113.97 20.21 99.85 26.9 85.42 37.83 73.64 43.61 57.57 58.57 49.4 73.8 42.66 82.77 27.43 98 20.8 112.27 12.1 129.83 12.36 145.59 8.17 161.35 1.38 178.11 .8 194.29 .42 210.48 3.82 226.71 7.06 242.89 2.92 259.08 7.91 275.31 6.47 291.5 8.12 307.68 8.01 323.86 .96 340.04 .69 356.28 2.81 372.46 7.8 388.64 2.6 404.82 1.8 421.06 3.66 437.24 6.42 453.43 8.97 469.61 .74 485.84 2.28 502.03 5.52 518.21 5.84 534.44 7.27 550.63 5.52 566.81 1.11 582.99 7.32 599.23 0 615.41 9.39 631.59 6.15 647.83 9.07 664.01 1.01 680.19 5.84 696.37 .9 712.61 9.71 728.79 7.37 744.97 7.22 761.21 2.12 777.39 2.6 793.57 7.43 809.81 8.6 825.99 4.88 842.17 2.92 858.99 1.33 874.33 10.35 889.77 14.75 906.96 14.86 922.08 21.22 936.62 28.92 947.44 41.49 964.84 46.16 970.78 62.82 982.88 73.32 994.45 84.84 999.28 100.28 1003.94 115.19 1008.67 129.88 1018.43 143.78 1021.82 159.44 1020.29 175.41 1024 175.41 1018.32 191.11 1018.11 207.03 1016.25 223.05 1004.05 235.68 998.69 250.32 992.43 264.81 981.82 276.75 974.71 291.5 963.83 303.65 948.5 310.7 935.5 320.25 919.8 325.19 907.86 338.34 891.15 340.79 875.33 345.83 858.57 345.08 842.17 349.49"/>
      </g>
      <g>
        <path class="cls-2" d="M370.6,206.76c.27.11.64.37,1.06.69,1.06.85,1.64,2.07,1.64,3.61,0,.74-.11,1.64-.37,2.65-16.45,4.09-28.49,6.15-36.18,6.15-14.43,0-26.95-3.77-37.56-11.25-11.94-8.44-17.88-19.58-17.88-33.43,0-9.6,3.02-17.88,9.02-24.88,2.76-3.18,6-5.94,9.76-8.38,3.77-2.44,8.01-4.51,12.79-6.26,8.28-3.02,17.24-4.51,27.01-4.51,6.9,0,14.22,1.11,21.91,3.4,1.17.42,2.23.69,3.24.8s1.91.21,2.76.21c.69-.11,1.22-.16,1.7-.21s.9-.05,1.33-.05c.58-.16,1.54.37,2.87,1.54-3.34,2.28-4.99,5.68-4.99,10.08,0,.9.11,2.07.27,3.45.16,1.38.27,2.49.27,3.29v1.27c-2.02-.27-3.29-.58-3.87-1.01-.85-.69-1.33-1.86-1.49-3.5-.27-2.49-.58-4.03-1.01-4.62-.9-1.17-2.39-2.23-4.4-3.24-2.02-1.01-4.62-1.91-7.91-2.76-5.68-1.43-10.4-2.12-14.17-2.12-4.83,0-9.66,1.27-14.54,3.77l-13.16,6.26c-7.16,2.76-10.77,11.88-10.77,27.43,0,13.26,5.2,23.29,15.65,30.08,8.6,5.68,17.24,8.54,25.89,8.54,7.27,0,13.21-1.49,17.88-4.51,2.92-1.75,5.73-4.51,8.38-8.28.74-1.17,1.49-1.75,2.23-1.75.27,0,.53.11.9.32.32.21.64.32.9.32.42,0,1.06-.21,1.96-.64.9-.42,1.33-.64,1.43-.64.32,0,.48.27.48.74-.58,1.01-1.17,2.07-1.75,3.18s-1.22,2.39-1.86,3.82c.11.16.27.32.58.42Z"/>
        <path class="cls-2" d="M418.57,177.42c-.69.58-1.27,1.11-1.7,1.49-1.01.69-1.91,1.17-2.71,1.43s-1.54.53-2.18.69c0-.42.48-1.38,1.38-2.87.9-1.49,2.23-3.66,3.98-6.53l-.11-.11c-3.77,3.08-5.73,4.67-5.89,4.78-3.02,0-6.15,1.27-9.5,3.77-1.17.74-1.8,1.49-1.86,2.23l-.11,3.5-.64,11.41c-.27,7.59.21,12.52,1.38,14.75.69.48,1.7.69,3.13.64l2.12-.27h6.63l-.48,5.89c.69,0,.32,0-1.01,0s-3.61,0-6.9.11l-27.01.74.27-4.88c1.64-.27,3.02-.48,4.09-.69s1.75-.42,2.18-.69c1.64-.74,2.76-3.71,3.24-8.86.11-1.43.16-3.29.21-5.68s.05-5.25.05-8.7c0-5.25-.32-8.49-.9-9.76-.48-1.01-1.7-1.49-3.61-1.49-.16,0-.37.16-.64.42s-.53.58-.8.96c-.32.32-.58.64-.9.96s-.48.42-.58.42l-3.24-7.11c9.18,0,16.87-3.61,23.13-10.88.27,3.77.37,7.32.37,10.77.9-.42,1.96-.9,3.18-1.49,1.22-.58,2.55-1.27,4.09-2.02.42-.16,1.11-.48,2.12-.9l3.77-1.75c.9-.42,1.75-.85,2.55-1.33s1.54-.9,2.18-1.33l1.49.74c.48.27,1.17.58,2.07,1.06s1.91,1.06,3.08,1.8c1.17,1.17,1.75,2.65,1.75,4.51,0,.85-.58,1.33-1.75,1.49-1.59.11-2.76.32-3.5.64-.9.85-1.75,1.54-2.44,2.12Z"/>
        <path class="cls-2" d="M440.37,199.92c.11,2.23.96,4.24,2.65,6,3.24,3.93,8.38,5.89,15.39,5.89,4.83,0,10.45-1.86,16.87-5.52l4.88,1.01c-3.4,3.4-7.75,6.26-13,8.49-5.68,2.49-10.72,3.77-15.12,3.77-7.32,0-13.42-2.23-18.25-6.63-4.78-4.51-7.11-10.45-7.11-17.88s2.39-14.27,7.11-19.79c5.09-5.84,11.46-8.75,19.15-8.75,14.54,0,23.35,5.94,26.53,17.88l.37,7.37c-4.51.69-8.7,1.11-12.57,1.38s-7.53.37-10.93.37c-2.33,0-4.4,0-6.26-.11-1.86-.05-3.4-.21-4.78-.37l-5.25-.74.37,7.64h-.05ZM461.76,174.5c-.58-.16-1.64-.11-3.24.11-1.01.16-1.91.32-2.76.37-.85.11-1.59.11-2.23.11-7.59,0-11.99,3.77-13.26,11.25l9.02-2.02s1.22.53,2.87.9c2.49.58,4.62.96,6.26,1.11,5.15.16,8.49,0,9.87-.48-1.11-5.94-3.24-9.71-6.53-11.41v.05ZM440.85,151.27c2.76-1.33,5.31-4.19,7.64-8.49,2.18-4.24,3.4-6.53,3.61-6.74l13.74-.37c-2.44,1.17-4.88,3.87-7.37,8.12-2.44,4.24-4.46,6.74-6.15,7.53h-11.51l.05-.05ZM449.23,184.43l.64-.11c-.42,0-.64,0-.64.11Z"/>
        <path class="cls-2" d="M535.45,205.07c-2.49,9.07-9.97,13.64-22.39,13.64-7,0-12.95-1.96-17.88-5.89-5.25-3.98-7.91-9.5-7.91-16.5,0-6.15,1.7-11.25,5.15-15.28,5.41-6.69,13.16-11.14,23.29-13.37,1.91-.42,3.5-.74,4.67-1.01,1.22-.27,2.12-.37,2.81-.37,3.02,0,7.53.58,13.64,1.75,0,.58.11,1.06.27,1.38v-8.65c-.11-1.06-.27-2.18-.48-3.29-.27-1.11-.58-2.33-1.01-3.71-.48-.16-1.22-.27-2.12-.27-.69,0-1.54.05-2.55.21-1.06.11-2.33.42-3.93.8l-.48-4.88c10.24-3.61,17.67-6.74,22.28-9.39l3.98,1.38c-.42,1.75-.8,3.61-1.11,5.62s-.64,4.14-.9,6.37c-.32,1.91-.85,5.62-1.49,11.14l-.48,32.05c-.16,3.08-.11,6.05.11,8.81.27,2.81.58,5.46,1.01,7.96.11.11,0,.48-.27,1.27-.42.74-.16,1.11.74,1.11.85,0,1.7-.21,2.65-.64v5.73c-4.93,1.43-8.44,2.12-10.51,2.12-.42,0-.96-.16-1.54-.42-.64-.32-1.11-.42-1.43-.42-2.18,0-3.5-5.73-3.98-17.24h-.16ZM528.98,175.88c-2.07-.42-4.56-.85-7.53-1.27-2.49-.27-3.93-.37-4.24-.37-2.23,0-4.4.32-6.42.96s-3.87,1.64-5.57,3.08c-3.93,2.87-5.89,6.42-5.89,10.77,0,6.42,2.02,11.57,6.15,15.39,3.98,3.77,9.28,5.62,15.76,5.62s11.35-3.82,14.27-11.51c-.11-1.27-.11-2.71-.05-4.4,0-1.64.11-3.55.21-5.62l.37-9.76c0-.32-.64-.74-1.86-1.27-1.33-.64-3.02-1.22-5.15-1.64l-.05.05Z"/>
        <path class="cls-2" d="M556.09,219.34l.9-5.15c1.75-.16,3.08-.27,3.93-.37s1.38-.11,1.43-.11c1.75-.58,2.76-1.91,3.02-3.98,0-2.65.64-5.62,2.02-8.86l-1.64-7.64c-.16-1.59-.32-3.55-.48-5.89-.16-2.33-.42-5.04-.74-8.12-.27,0-.64,0-1.11-.05-.48,0-1.11-.11-1.86-.21-3.4-.42-5.15-1.22-5.15-2.39,0-1.59.9-2.55,2.76-2.87,5.94-1.43,11.99-4.19,18.15-8.38.85,0,2.12.27,3.87.74-.58,2.02-1.11,4.62-1.54,7.91-.48,3.24-.74,7.11-.96,11.62l-.27,4.99c-.11,1.64-.11,3.29-.11,4.88,0,8.6.37,14.17,1.11,16.66.32.48,1.91.9,4.78,1.27h.74s-.16.11-.27.11c.05.11.27.11.64.11l2.49,4.99-31.68.74h-.05ZM572.86,155.78l-4.4-9.5-9.39-4.24,9.39-4.4,4.4-9.5,4.4,9.5,9.5,4.4-9.5,4.24-4.4,9.5Z"/>
        <path class="cls-2" d="M593.18,168.03c1.43-1.86,2.12-3.34,2.12-4.51,0-.48-.11-1.06-.37-1.75h6.53c-.27-1.64-.64-2.76-1.11-3.24-.11-.27.21-.9.9-1.86.85-1.06,1.27-1.64,1.27-1.75,0-.27-.27-.37-.74-.37h-1.27l.27-2.02v-4.99l3.24.11c.74.16,1.64,0,2.76-.64.32-.32.53-.48.64-.48,1.01,0,1.49.32,1.49,1.01,0,.42-.11.96-.32,1.54-.21.64-.58,1.38-1.06,2.33l9.66-7.64c-1.33,4.09-2.39,10.08-3.13,18.04h16.5s-.37.74-.9,1.49-1.22,1.75-2.12,3.02c-1.17,1.49-1.75,2.97-1.75,4.4,0,.27.11.69.27,1.38h-12.52l-.11,1.01c.58.48,1.11,2.23,1.49,5.15-.11,2.44-.16,5.09-.21,7.96,0,2.87-.05,5.94-.05,9.18,0,8.6.37,13.9,1.11,15.92.48,1.43,3.61,2.39,9.39,2.87v5.52l-18.52-1.01c-4.67,0-10.03.27-16.02.74v-5.15c3.61-.48,6.1-1.11,7.53-1.86,2.07-1.06,3.4-3.18,3.87-6.26.69-3.98.9-7.27.74-9.76l-.74-19.52v-4.78h-11.51c.11-.42,1.01-1.75,2.76-3.98l-.05-.11Z"/>
        <path class="cls-2" d="M660.56,218.28c-3.55.96-7,1.43-10.35,1.43-1.75,0-4.24-.27-7.43-.74-3.24-.48-7.27-1.33-12.2-2.49,3.08-.85,4.62-1.96,4.62-3.34,0-.32-.37-1.06-1.11-2.23l-.9-1.64c0-.85-.53-2.12-1.64-3.87-.85-1.17-1.54-2.12-2.07-2.92-.53-.8-.9-1.54-1.06-2.18,2.18,2.44,4.03,3.61,5.62,3.61.85,0,1.59-.32,2.23-.9,0,1.64.64,2.92,2.02,3.77.58.42,2.81,1.64,6.63,3.61,3.08,1.33,6.15,2.02,9.28,2.02,2.44,0,4.88-.37,7.37-1.11,1.91-.74,2.87-2.23,2.87-4.35,0-2.97-2.02-5.68-6-8.12-1.01-.48-2.33-1.11-3.98-1.86s-3.77-1.64-6.26-2.6c-4.62-1.64-7.91-3.24-10.03-4.72-3.77-2.6-5.62-5.68-5.62-9.39,0-5.84,3.93-10.45,11.78-13.85,3.66-1.59,7.91-2.39,12.63-2.39,2.65,0,7.64.37,14.91,1.06-.16.32-.27.64-.27.96v1.06c0,3.24,1.22,7.53,3.61,12.89l-8.38-8.28c.11.32.11.8.11,1.38,0,.9-.37,1.38-1.11,1.38-.58,0-1.06-.11-1.38-.37-3.24-1.27-5.73-2.23-7.43-2.87s-2.71-1.01-2.92-1.01c-5.52,0-8.28,2.12-8.28,6.37,0,1.33.48,2.39,1.38,3.13.64.58,2.02,1.38,4.09,2.33,2.02.96,4.78,2.07,8.17,3.29,5.57,2.07,9.66,4.19,12.15,6.37,3.93,3.08,5.89,6.95,5.89,11.51,0,5.2-1.96,8.7-5.89,10.51-3.82,2.07-7.53,3.61-11.09,4.56h.05Z"/>
      </g>
      <path class="cls-2" d="M758.29,226.29l-12.1-26.26-25.89-11.73,25.89-12.1,12.1-26.26,12.1,26.26,26.26,12.1-26.26,11.73-12.1,26.26Z"/>
    </g>
  </g>
</svg>