<?xml version="1.0" encoding="UTF-8"?>
<svg id="Calque_1" data-name="Calque 1" xmlns="http://www.w3.org/2000/svg" viewBox="0 0 1632.2 580.77">
  <defs>
    <style>
      .cls-1 {
        fill: #8dced8;
      }

      .cls-1, .cls-2 {
        stroke-width: 0px;
      }

      .cls-2 {
        fill: #faf9e1;
      }
    </style>
  </defs>
  <g id="Calque_1-2" data-name="Calque 1-2">
    <g>
      <g>
        <g id="Calque_1-2-2" data-name="Calque 1-2">
          <polygon class="cls-1" points="1342.43 579.61 1316.6 579.68 1290.78 567.58 1264.96 573.39 1239.14 575.07 1213.32 568.42 1187.53 577.09 1161.71 568.1 1135.89 568.1 1110.07 569.82 1084.28 576.92 1058.46 567.4 1032.64 566.7 1006.82 572.16 981 574.05 955.18 579.33 929.39 570.76 903.57 575.35 877.75 579.12 851.93 570.34 826.11 571.85 800.28 570.31 774.46 577.06 748.68 580.24 722.86 580.77 697.03 576.78 671.21 573.46 645.39 568.03 619.57 570.27 593.75 566.11 567.93 575.28 542.11 568.24 516.29 568.07 490.46 577.37 464.68 567.37 438.82 575.14 413 576.57 387.18 577.83 361.39 570.34 335.54 572.13 309.72 571.25 283.89 569.99 257.09 580.38 231.13 573.18 205.21 567.54 180.05 559.01 161.12 537.52 133.9 533.18 109.37 522.02 89.81 503.86 73.09 483.12 61.96 458.55 42.27 440.57 30.16 417.3 16.2 394.67 19.35 366.22 11.09 341.94 9.73 316.36 1.54 290.96 0 290.96 7.31 265.32 13.19 240.33 9.87 212.97 20.75 189.01 32.22 165.63 42.86 141.7 60.32 122.11 69.49 95.48 93.35 81.94 117.6 70.71 131.91 45.45 156.19 34.5 178.96 20.05 206.92 20.47 232.04 13.54 257.16 2.27 283.89 1.36 309.72 .7 335.54 6.33 361.36 11.69 387.14 4.86 412.97 13.16 438.79 10.74 464.61 13.47 490.43 13.33 516.25 1.57 542.04 1.15 567.86 4.65 593.68 12.98 619.5 4.3 645.29 3.01 671.11 6.09 696.93 10.64 722.75 14.83 748.57 1.22 774.39 3.74 800.21 9.2 826 9.69 851.82 12.04 877.64 9.17 903.46 1.89 929.29 12.14 955.11 0 980.93 15.57 1006.75 10.18 1032.57 15.04 1058.39 1.68 1084.21 9.62 1110.03 1.54 1135.82 16.09 1161.64 12.25 1187.46 12 1213.28 3.5 1239.11 4.3 1264.93 12.32 1290.78 14.24 1316.6 8.08 1342.43 4.83 1369.16 2.24 1393.61 17.11 1418.25 24.46 1445.61 24.6 1469.75 35.23 1492.88 47.93 1510.16 68.79 1537.91 76.52 1547.35 104.16 1566.63 121.65 1585.07 140.72 1592.77 166.3 1600.25 191.07 1607.74 215.46 1623.28 238.44 1628.73 264.41 1626.29 290.96 1632.2 290.96 1623.17 316.96 1622.82 343.37 1619.88 369.89 1600.43 390.89 1591.86 415.13 1581.85 439.21 1564.99 459.01 1553.61 483.47 1536.33 503.65 1511.87 515.34 1491.13 531.12 1466.07 539.31 1447.08 561.11 1420.45 565.23 1395.22 573.53 1368.49 572.3 1342.43 579.61"/>
        </g>
        <g>
          <path class="cls-2" d="M522.41,394.14s-.14-.24-.14-.42c-4.97-7.94-10.29-11.9-16.02-11.9-3.25,0-10.46,3.22-21.69,9.62-3.01,1.33-14.07,8.89-33.17,22.67-11.9,10.22-24,15.29-36.28,15.29-2.83,0-5.95-.94-9.34-2.83-4.16-1.89-6.23-4.27-6.23-7.1,0-4.72,1.61-10.01,4.83-15.88,3.78-7.38,8.5-11.06,14.17-11.06,2.66,0,4.16,3.39,4.55,10.22.17,3.78.42,6.58.7,8.36.28,1.78.52,2.8.7,2.97,25.12-9.45,43.25-22.29,54.41-38.56,7.38-10.78,11.06-28.06,11.06-51.85v-57.8c0-23.79-.28-42.62-.84-56.4-.56-13.79-1.61-22.85-3.11-27.22-1.89-6.4-7.94-10.22-18.12-11.34-5.67-.38-11.72-.38-18.12,0l-2.55-13.33c3.39,0,8.4.84,15.01,2.55,3.22.56,6.09,1.05,8.64,1.43s4.58.56,6.09.56c.38,0,4.9,2.45,13.61,7.38,8.4,4.72,13.72,6.89,16.02,6.51,1.33-.17,1.99-1.12,1.99-2.83,0-.56-.17-1.47-.56-2.69-.38-1.22-.87-2.52-1.43-3.81-.56-1.33-1.05-2.59-1.43-3.81s-.56-2.13-.56-2.69.1-.84.28-.84c8.01,0,24.95-.56,50.87-1.71l.56,13.05c-12.84.56-21.34,1.71-25.51,3.39-4.34,1.5-6.89,6.05-7.66,13.61,0,.38-.1,1.99-.28,4.83s-.38,7-.56,12.46c-.17,8.33-.35,15.95-.42,22.95-.1,7-.14,13.51-.14,19.56v39.68c0,6.61.1,14.45.28,23.51.17,9.06.28,17,.28,23.79v59.23c.17,0,.28.1.28.28s-.03.24-.14.14v.03Z"/>
          <path class="cls-2" d="M638.74,354.61c-27.22,0-48.46-8.4-63.78-25.23-8.33-8.89-12.46-20.4-12.46-34.57s4.72-25.61,14.17-36c8.5-9.45,19.73-16.16,33.73-20.12,9.27-3.01,19.28-4.55,30.05-4.55,18.51,0,34.78,5.11,48.74,15.29,15.88,11.16,23.79,25.68,23.79,43.63,0,11.16-3.11,21.34-9.34,30.61-13.79,20.61-35.41,30.89-64.9,30.89v.03ZM641.58,252.44c-3.01-2.34-6.44-3.53-10.22-3.53-11.51,0-20.78,3.36-27.78,10.08s-10.5,16.02-10.5,27.92c0,14.73,4.16,27.12,12.46,37.12,9.27,11.16,20.89,16.72,34.85,16.72,12.84,0,22.95-3.74,30.33-11.2,7.38-7.45,11.06-17.42,11.06-29.88,0-2.06-.35-3.78-.98-5.11-.66-1.33-1.64-2.66-2.97-3.95-.56-.38-1.61-.98-3.11-1.85-1.5-.84-3.6-2.03-6.23-3.53-2.66-1.33-5.39-3.78-8.22-7.38-2.83-3.6-6.05-8.4-9.62-14.45-3.01-4.9-6.05-8.54-9.06-10.92v-.03Z"/>
          <path class="cls-2" d="M822.68,338.16c-26.84,11.16-46.01,16.72-57.52,16.72-12.84,0-22.5-4.83-28.9-14.45-5.67-8.5-8.22-19.28-7.66-32.29l1.71-33.17c0-2.62-.1-4.97-.28-6.93-.17-1.99-.49-3.74-.84-5.25-.38-1.12-1.4-1.71-3.11-1.71h-.28c-.77.77-2.55,1.43-5.39,1.99v-13.33l34.57-17.28c4.55,0,6.72,2.17,6.51,6.51-1.5,16.23-2.55,29.46-3.11,39.68-.56,10.22-.84,17.49-.84,21.83,0,10.6,1.71,19.1,5.11,25.51,2.45,6.23,9.55,9.34,21.24,9.34,7.17,0,20.01-3.78,38.56-11.34,0-2.83.03-5.28.14-7.38.1-2.06.24-3.6.42-4.55,1.12-28.52,1.12-44.5,0-47.9-.56-2.66-1.78-4.27-3.67-4.83.56-.56-1.33-1.12-5.67-1.71l-.84-11.9c5.84.17,11.83-1.12,17.84-3.95l25.79-12.46-4.23,60.95c-.17,4.72-.35,8.71-.42,11.9-.1,3.22-.14,5.84-.14,7.94,0,6.05.14,11.2.42,15.43s.91,7.8,1.85,10.64l-3.95,4.83c-1.5,1.89-2.55,3.36-3.11,4.41s-1.05,1.75-1.43,2.13c0,.17.17.38.56.56.56.38,3.67-1.33,9.34-5.11l8.22-5.39c1.12,0,1.71.56,1.71,1.71l.28,1.71c.17-.17.42-.38.7-.56s.59-.56.98-1.12l7.66,6.51c-13.23,10.01-24.77,15.01-34.57,15.01-3.95,0-7.94-.84-11.9-2.55-2.66-7.17-4.51-13.89-5.67-20.12l-.07-.03Z"/>
          <path class="cls-2" d="M912.21,310.1c.17,5.11,2.17,9.62,5.95,13.61,7.38,8.89,19,13.33,34.85,13.33,10.95,0,23.72-4.16,38.24-12.46l11.06,2.27c-7.73,7.73-17.56,14.17-29.46,19.28-12.84,5.67-24.28,8.5-34.29,8.5-16.62,0-30.4-5-41.39-15.01-10.78-10.22-16.16-23.72-16.16-40.52s5.39-32.29,16.16-44.78c11.51-13.23,25.96-19.84,43.35-19.84,32.89,0,52.9,13.51,60.07,40.52l.84,16.72c-10.22,1.5-19.7,2.55-28.48,3.11-8.78.56-17.04.84-24.81.84-5.28,0-10.01-.1-14.17-.28s-7.73-.45-10.78-.84l-11.9-1.71.84,17.28.07-.03ZM960.67,252.58c-1.33-.38-3.78-.28-7.38.28-2.27.38-4.34.66-6.23.84-1.89.17-3.6.28-5.11.28-17.18,0-27.22,8.5-30.05,25.51l20.4-4.55c.56.56,2.73,1.22,6.51,1.99,5.67,1.33,10.39,2.17,14.17,2.55,11.72.38,19.17,0,22.39-1.12-2.45-13.4-7.38-22.01-14.73-25.79h.04ZM932.33,274.97l1.43-.28c-.94,0-1.43.1-1.43.28Z"/>
          <path class="cls-2" d="M1103.07,259.09c-1.61,1.33-2.87,2.45-3.81,3.39-2.27,1.5-4.3,2.59-6.09,3.25-1.78.66-3.46,1.19-4.97,1.57,0-.94,1.01-3.11,3.11-6.51,2.06-3.39,5.11-8.33,9.06-14.73l-.28-.28c-8.5,7-12.95,10.6-13.33,10.78-6.79,0-14,2.83-21.55,8.5-2.66,1.71-4.06,3.39-4.27,5.11l-.28,7.94-1.43,25.79c-.56,17.18.45,28.34,3.11,33.45,1.5,1.12,3.88,1.61,7.07,1.43l4.83-.56h15.01l-1.12,13.33c1.5,0,.73,0-2.27,0s-8.22.1-15.6.28l-61.23,1.71.56-11.06c3.78-.56,6.86-1.08,9.2-1.57,2.34-.45,4.02-.98,4.97-1.57,3.78-1.71,6.23-8.4,7.38-20.12.17-3.22.31-7.52.42-12.91.1-5.39.14-11.97.14-19.7,0-11.9-.66-19.28-1.99-22.11-1.12-2.27-3.88-3.39-8.22-3.39-.38,0-.84.31-1.43.98-.56.66-1.19,1.36-1.85,2.13s-1.33,1.47-1.99,2.13-1.08.98-1.26.98l-7.38-16.16c20.78,0,38.24-8.22,52.45-24.67.56,8.5.84,16.62.84,24.39,2.06-.94,4.48-2.06,7.24-3.39,2.73-1.33,5.81-2.83,9.2-4.55.94-.38,2.55-1.05,4.83-1.99l8.5-3.95c2.06-.94,4.02-1.92,5.81-2.97,1.78-1.05,3.43-2.03,4.97-2.97l3.39,1.71c1.12.56,2.69,1.36,4.69,2.41s4.3,2.41,6.93,4.09c2.66,2.66,3.95,6.05,3.95,10.22,0,1.89-1.33,3.01-3.95,3.39-3.6.17-6.23.66-7.94,1.43-2.1,1.89-3.92,3.5-5.53,4.83l.14-.07Z"/>
        </g>
      </g>
      <path class="cls-2" d="M199.5,187.96l-9.1-19.73-19.45-8.82,19.45-9.1,9.1-19.73,9.1,19.73,19.73,9.1-19.73,8.82s-9.1,19.73-9.1,19.73Z"/>
      <path class="cls-2" d="M300.97,306.92l-9.1-19.73-19.45-8.82,19.45-9.1,9.1-19.73,9.1,19.73,19.73,9.1-19.73,8.82-9.1,19.73Z"/>
      <path class="cls-2" d="M1334.87,201.95l-8.54-18.51-18.26-8.29,18.26-8.54,8.54-18.51,8.54,18.51,18.51,8.54-18.51,8.29-8.54,18.51Z"/>
      <path class="cls-2" d="M1264.89,306.92l-8.54-18.51-18.26-8.29,18.26-8.54,8.54-18.51,8.54,18.51,18.51,8.54-18.51,8.29-8.54,18.51Z"/>
      <path class="cls-2" d="M1369.86,404.88l-8.54-18.51-18.26-8.29,18.26-8.54,8.54-18.51,8.54,18.51,18.51,8.54-18.51,8.29-8.54,18.51Z"/>
      <path class="cls-2" d="M199.5,446.87l-9.1-19.73-19.45-8.82,19.45-9.1,9.1-19.73,9.1,19.73,19.73,9.1-19.73,8.82s-9.1,19.73-9.1,19.73Z"/>
    </g>
  </g>
</svg>