<?xml version="1.0" encoding="UTF-8"?>
<svg id="Calque_1" data-name="Calque 1" xmlns="http://www.w3.org/2000/svg" viewBox="0 0 1057.88 353.17">
  <defs>
    <style>
      .cls-1 {
        fill: #f5bed7;
      }

      .cls-1, .cls-2 {
        stroke-width: 0px;
      }

      .cls-2 {
        fill: #faf9e1;
      }
    </style>
  </defs>
  <g id="Calque_1-2" data-name="Calque 1-2">
    <g>
      <g id="Calque_2-2" data-name="Calque 2-2">
        <polygon class="cls-1" points="851.57 345.54 830.1 353.17 808.58 349.63 787.11 344.35 765.58 350.99 744.11 352.03 722.59 352.03 701.11 347.89 679.59 347.83 658.12 350.28 636.59 347.56 615.12 345.98 593.65 347.18 572.13 350.5 550.66 346.63 529.13 345.76 507.66 350.61 486.14 345.76 464.67 350.01 443.14 350.28 421.67 351.21 400.15 345.76 378.68 348.11 357.15 349.52 335.68 349.41 314.16 347.34 292.69 347.56 271.16 348.11 249.69 347.89 228.16 350.99 206.64 348.32 185.71 345.98 164.46 345.11 143.21 342.33 124.19 333.88 104.3 327.13 90.51 312.25 72.37 303.15 58.58 289.74 46.7 275.19 30.41 262.88 17.93 247.78 16.35 228.93 5.29 212.74 0 194.81 1.8 176.34 4.96 176.34 7.3 158.58 3.32 139.61 16.78 123.92 23.11 106.86 29.32 89.32 42.23 74.77 59.13 63.43 72.15 49.37 86.54 35.75 102.72 23.27 123.05 16.68 144.19 12.81 165.5 11.83 185.88 8.45 206.64 .82 228.16 8.23 249.64 1.69 271.16 2.18 292.63 5.72 314.16 .65 335.63 .11 357.15 2.29 378.62 8.28 400.15 8.07 421.62 1.91 443.14 6.92 464.61 7.08 486.08 7.57 507.61 5.5 529.08 3.16 550.6 4.09 572.07 6.7 593.6 4.2 615.07 3.71 636.59 2.51 658.06 2.56 679.59 0 701.06 7.96 722.59 1.36 744.06 4.58 765.58 4.85 787.05 5.89 808.58 5.67 830.1 7.47 851.57 0 872.39 8.17 893.64 8.01 915.38 9.37 935.76 15.59 954.18 25.23 970.04 37.76 984.05 51.28 999.36 63.21 1017.12 74.11 1023.28 92.09 1039.74 105.12 1043.06 123.48 1049.76 140.54 1051.34 158.52 1052.43 176.34 1057.88 176.34 1052.38 194.32 1053.58 212.85 1041.05 228.71 1040.34 247.78 1023.83 260.92 1017.18 278.63 1001.21 290.94 986.61 303.86 968.79 313.56 950.42 321.89 934.89 335.46 914.13 340.09 892.66 340.75 872.99 349.63 851.57 345.54"/>
      </g>
      <g>
        <path class="cls-2" d="M197.76,172.2c-6.43,0-12.26-1.53-17.55-4.52-1.2-.6-2.13-1.09-2.83-1.47s-1.09-.82-1.31-1.2l.93,13.51c.11,1.8.22,4.03.38,6.7s.33,5.78.49,9.37c-.44,1.91-.65,3.92-.65,6.16.65,1.31,5.5,2.18,14.44,2.72l-6.92,5.67c-.87-.16-2.29-.33-4.25-.38-1.96-.11-4.47-.11-7.57-.11-2.23,0-4.47.11-6.81.27s-4.63.33-6.92.49l-4.09.38c-.71,0-1.42-.11-2.23-.27s-1.69-.33-2.62-.49v-4.52l5.78-1.42c2.89-.6,4.47-1.36,4.63-2.29,1.47-3.16,2.51-6.1,3.22-8.72s1.04-5.12,1.04-7.3c0-3.43-.54-6.65-1.69-9.65-1.8-4.63-2.72-10.84-2.72-18.64v-3.32c0-1.36,0-2.94.11-4.74.11-1.91.16-3.49.22-4.9,0-1.36.05-2.51.05-3.49v-1.91c0-.6,0-1.14-.11-1.69l-.27-4.36c-.27-2.4-.71-3.92-1.31-4.63-.76-.93-4.14-1.69-10.14-2.29.6-.49,1.09-.93,1.47-1.25s.87-.76,1.47-1.25c0-.05-.16-.27-.44-.65s-.65-.65-1.04-.98-.71-.65-.98-.93-.38-.54-.38-.71c2.67.16,5.34.33,8.12.38,2.72.11,5.5.11,8.34.11,1.09,0,2.45,0,4.03-.05,1.58,0,3.43-.11,5.56-.22,2.07-.16,3.87-.27,5.45-.38s2.94-.11,4.03-.11c16.51,0,28.17,2.62,35.04,7.85,7.96,5.89,11.93,12.32,11.93,19.24,0,4.52-2.56,9.81-7.68,15.75-6.05,6.92-14.82,10.41-26.27,10.41l.05-.16ZM186.26,125.72c-1.47,0-2.94.05-4.52.22-1.53.11-3.16.38-4.9.71l-.93,20.33v2.45c0,1.36,0,3.49.11,6.43,1.2.93,2.4,1.8,3.54,2.62s2.23,1.58,3.27,2.4c3.27,2.72,7.74,4.09,13.51,4.09s10.19-1.47,12.86-4.36c4.09-4.63,6.16-9.26,6.16-13.9,0-1.8-.27-3.6-.82-5.34-.54-1.74-1.36-3.6-2.4-5.45-4.09-6.76-12.75-10.14-25.94-10.14l.05-.05Z"/>
        <path class="cls-2" d="M290.83,152.42c-.93,3-1.63,5.94-2.07,8.88-.44,2.94-.71,5.83-.93,8.66-.11.76-.11,2.51-.11,5.12v10.63c0,6.65.11,10.9.38,12.7,1.36,3.16,3.16,4.74,5.39,4.74,1.69,0,3.71-.93,5.89-2.72l1.04,3.11c-4.96,4.2-10.46,6.32-16.46,6.32-.44,0-.98,0-1.58-.05-.65,0-1.42-.11-2.23-.22l-1.91-.38c-2.51,0-3.87-5.01-4.09-15.04-2.56,9.32-10.24,14-23,14-7.19,0-13.35-2.02-18.36-6.05-5.39-4.09-8.12-9.75-8.12-16.95,0-8.72,4.09-16.13,12.21-22.23,7.52-5.72,15.75-8.61,24.69-8.61,5.07,0,9.48,1.74,13.24,5.29v-3.05s.33,0,.44-.05c.11,0,.27-.05.44-.05,3.43-1.2,7.08-2.94,11.06-5.34,0,0,4.09,1.31,4.09,1.31ZM248.76,163.54c-2.07.65-3.98,1.69-5.72,3.16-4.03,2.94-6.05,6.59-6.05,11.06,0,6.59,2.07,11.88,6.32,15.8,4.09,3.87,9.54,5.78,16.18,5.78,3.92,0,7.36-1.47,10.3-4.36.65-.87,1.04-2.23,1.04-4.09,0-.87-.11-2.18-.27-3.92s-.27-3.11-.27-4.03c0-3.11.76-4.63,2.29-4.63.44,0,.71,0,.76.11.93.33,2.89,2.89,5.89,7.74.11-.11.11-.22.11-.38.11-1.36-.71-3.87-2.29-7.47-1.63-3.49-2.45-5.89-2.45-7.19-.76-2.89-3.49-5.18-8.12-6.81-3.27-1.09-6.98-1.69-11.17-1.69-2.29,0-4.52.33-6.59.98l.05-.05ZM275.68,158.09v-1.04c-.16.76-.33,1.42-.38,1.85-.11.49-.11.82-.11,1.09.16.16.27.27.38.27.05-.93.11-1.69.11-2.18Z"/>
        <path class="cls-2" d="M345.65,165.77c-.71.6-1.31,1.14-1.74,1.53-1.04.71-1.96,1.2-2.78,1.47s-1.58.54-2.23.71c0-.44.49-1.42,1.42-2.94s2.29-3.76,4.09-6.7l-.11-.11c-3.87,3.16-5.89,4.8-6.05,4.9-3.11,0-6.32,1.31-9.75,3.87-1.2.76-1.85,1.53-1.91,2.29l-.11,3.6-.65,11.72c-.27,7.79.22,12.86,1.42,15.15.71.49,1.74.71,3.22.65l2.18-.27h6.81l-.49,6.05c.71,0,.33,0-1.04,0s-3.71,0-7.08.11l-27.74.76.27-5.01c1.69-.27,3.11-.49,4.2-.71s1.8-.44,2.23-.71c1.69-.76,2.83-3.81,3.32-9.1.11-1.47.16-3.38.22-5.83s.05-5.39.05-8.94c0-5.39-.27-8.72-.93-10.03-.49-1.04-1.74-1.53-3.71-1.53-.16,0-.38.16-.65.44s-.54.6-.82.98c-.27.33-.6.65-.93.98-.27.33-.49.44-.6.44l-3.32-7.3c9.43,0,17.33-3.71,23.76-11.17.27,3.87.38,7.52.38,11.06.93-.44,2.02-.93,3.27-1.53s2.62-1.31,4.2-2.07c.44-.16,1.14-.49,2.18-.93l3.87-1.8c.93-.44,1.8-.87,2.62-1.36.82-.49,1.58-.93,2.23-1.36l1.53.76c.49.27,1.2.6,2.13,1.09s1.96,1.09,3.16,1.85c1.2,1.2,1.8,2.72,1.8,4.63,0,.87-.6,1.36-1.8,1.53-1.63.11-2.83.33-3.6.65-.93.87-1.8,1.58-2.51,2.18Z"/>
        <path class="cls-2" d="M417.97,152.42c-.93,3-1.63,5.94-2.07,8.88-.44,2.94-.71,5.83-.93,8.66-.11.76-.11,2.51-.11,5.12v10.63c0,6.65.11,10.9.38,12.7,1.36,3.16,3.16,4.74,5.39,4.74,1.69,0,3.71-.93,5.89-2.72l1.04,3.11c-4.96,4.2-10.46,6.32-16.46,6.32-.44,0-.98,0-1.58-.05-.65,0-1.42-.11-2.23-.22l-1.91-.38c-2.51,0-3.87-5.01-4.09-15.04-2.56,9.32-10.24,14-23,14-7.19,0-13.35-2.02-18.36-6.05-5.39-4.09-8.12-9.75-8.12-16.95,0-8.72,4.09-16.13,12.21-22.23,7.52-5.72,15.75-8.61,24.69-8.61,5.07,0,9.48,1.74,13.24,5.29v-3.05s.33,0,.44-.05c.11,0,.27-.05.44-.05,3.43-1.2,7.08-2.94,11.06-5.34,0,0,4.09,1.31,4.09,1.31ZM375.84,163.54c-2.13.65-4.03,1.69-5.72,3.16-4.03,2.94-6.05,6.59-6.05,11.06,0,6.59,2.13,11.88,6.32,15.8,4.09,3.87,9.54,5.78,16.18,5.78,3.92,0,7.36-1.47,10.3-4.36.71-.87,1.04-2.23,1.04-4.09,0-.87-.11-2.18-.27-3.92s-.27-3.11-.27-4.03c0-3.11.76-4.63,2.29-4.63.44,0,.65,0,.76.11.93.33,2.89,2.89,5.89,7.74.11-.11.11-.22.11-.38.05-1.36-.71-3.87-2.29-7.47-1.63-3.49-2.45-5.89-2.45-7.19-.76-2.89-3.49-5.18-8.12-6.81-3.27-1.09-6.98-1.69-11.17-1.69-2.29,0-4.52.33-6.59.98l.05-.05ZM402.76,158.09v-1.04c-.16.76-.27,1.42-.38,1.85-.11.49-.11.82-.11,1.09.16.16.27.27.38.27.11-.93.11-1.69.11-2.18Z"/>
        <path class="cls-2" d="M462.54,207.95c.65.33,1.25.65,1.69.93h-2.83c-1.04,0-2.29-.11-3.71-.27-1.69-.16-3.22-.27-4.41-.33-1.25,0-2.34,0-3.27.05l-20.44.27.38-5.01c4.03-.76,6.59-1.53,7.68-2.29,2.29-1.53,3.49-7.63,3.49-18.26,0-9.59-1.14-14.88-3.49-15.8-.49-.27-1.47-.44-2.83-.6-1.36-.11-3.11-.27-5.12-.44l4.63-7.3c1.04-.16,2.23-.38,3.6-.65,1.36-.27,3.05-.6,5.01-1.04.76-.27,1.58-.6,2.45-.98.87-.38,1.8-.82,2.83-1.36.87-.44,1.63-.65,2.29-.65,2.56,0,3.87,2.78,3.87,8.34l3.6-1.42c9.54-4.03,16.35-6.05,20.54-6.05,7.19,0,12.1,2.62,14.66,7.85,9.75-4.03,18.15-6.05,25.07-6.05,7.9,0,13.08,2.29,15.53,6.92,1.53,3.11,2.29,8.99,2.29,17.71v19.94c.33.27.71.54,1.04.93.27.27,1.69.71,4.25,1.31l2.29,4.74h-28.66l-1.42-4.74c3.16-.65,5.34-1.47,6.54-2.45,1.8-1.31,2.72-7.36,2.72-18.26,0-5.5-.71-9.59-2.18-12.32-2.07-3.32-5.67-5.01-10.79-5.01-4.36,0-9.43,1.04-15.15,3.11.16,1.36.27,2.72.38,4.09.05,1.36.11,2.72.11,4.09l.49,14.11c.11,4.69.22,8.23.38,10.52.6.76,2.13,1.31,4.63,1.53l-1.14,5.29h-8.5c-1.2,0-2.94,0-5.12-.11h-7.57l-1.14-4.36c.49-.16,2.51-.16,5.89,0,2.67.27,4.09.27,4.25,0l-1.69-4.25c.11.44-.82.93-2.72,1.53-.16.11-.49.22-.93.33s-.98.33-1.69.6c0-.27.11-.49.27-.65,1.47-.76,2.18-3.11,2.18-7.08,0-.44.11-.98.33-1.58.22-.65.54-1.42.98-2.4.93-2.07,1.31-3.49,1.14-4.36,0-.27-.11-.38-.27-.38-.71,0-1.42.49-2.18,1.53l-1.42,1.69c.05-2.56.11-5.23.05-8.01,0-2.78-.16-5.78-.33-8.94-1.36-5.07-4.69-7.57-9.92-7.57-3.87,0-9.54,1.58-16.95,4.74-.11,2.51-.16,4.74-.22,6.76s-.05,3.81-.05,5.45v6.81c0,7.03.11,11.17.38,12.48.49,1.96,2.51,3.98,5.89,6.05.76.49,1.47.93,2.18,1.31h.16ZM465.87,209.09h-.11s-.49,0-.71-.05c-.22,0-.49-.11-.82-.22h1.42l.27.27h-.05Z"/>
        <path class="cls-2" d="M558.67,188.93c.11,2.29.98,4.36,2.72,6.16,3.32,4.03,8.61,6.05,15.8,6.05,4.96,0,10.74-1.91,17.33-5.67l5.01,1.04c-3.54,3.49-7.96,6.43-13.35,8.72-5.83,2.56-11.01,3.87-15.53,3.87-7.52,0-13.79-2.29-18.75-6.81-4.9-4.63-7.3-10.74-7.3-18.36s2.45-14.66,7.3-20.33c5.23-5.99,11.77-8.99,19.67-8.99,14.93,0,23.98,6.1,27.25,18.36l.38,7.57c-4.63.71-8.94,1.14-12.91,1.42s-7.74.38-11.23.38c-2.4,0-4.52,0-6.43-.11-1.91-.05-3.54-.22-4.9-.38l-5.39-.76.38,7.85h-.05ZM580.63,162.83c-.6-.16-1.74-.11-3.32.11-1.04.16-1.96.33-2.83.38-.87.11-1.63.11-2.29.11-7.79,0-12.32,3.87-13.62,11.55l9.26-2.07s1.25.54,2.94.93c2.56.6,4.69.98,6.43,1.14,5.29.16,8.72,0,10.14-.49-1.14-6.1-3.32-9.97-6.7-11.72v.05ZM570.17,136.4c-1.09-1.25-2.29-3-3.65-5.23-2.51-4.36-4.9-7.14-7.3-8.34l14.11.38s1.53,2.4,3.87,6.92c1.2,2.23,2.4,4.09,3.65,5.5,1.25,1.47,2.62,2.51,4.03,3.22h-11.83c-.87-.44-1.8-1.25-2.89-2.51v.05ZM567.82,172.96l.65-.11c-.44,0-.65,0-.65.11Z"/>
        <path class="cls-2" d="M609.07,156.18c1.47-1.91,2.18-3.43,2.18-4.63,0-.49-.11-1.09-.38-1.8h6.7c-.27-1.69-.65-2.83-1.14-3.32-.11-.27.22-.93.93-1.91.87-1.09,1.31-1.69,1.31-1.8,0-.27-.27-.38-.76-.38h-1.31l.27-2.07v-5.12l3.32.11c.76.16,1.69,0,2.83-.65.33-.33.54-.49.65-.49,1.04,0,1.53.33,1.53,1.04,0,.44-.11.98-.33,1.58-.22.65-.6,1.42-1.09,2.4l9.92-7.85c-1.36,4.2-2.45,10.35-3.22,18.53h16.95s-.38.76-.93,1.53c-.49.76-1.25,1.8-2.18,3.11-1.2,1.53-1.8,3.05-1.8,4.52,0,.27.05.71.27,1.42h-12.86l-.11,1.04c.6.49,1.09,2.29,1.53,5.29-.11,2.51-.16,5.23-.22,8.17,0,2.94-.05,6.1-.05,9.43,0,8.83.38,14.28,1.14,16.35.49,1.47,3.71,2.45,9.65,2.94v5.67l-19.02-1.04c-4.8,0-10.3.27-16.46.76v-5.29c3.71-.49,6.27-1.14,7.74-1.91,2.13-1.09,3.49-3.27,3.98-6.43.71-4.09.93-7.47.76-10.03l-.76-20.05v-4.9h-11.83c.11-.44,1.04-1.8,2.83-4.09l-.05-.11Z"/>
        <path class="cls-2" d="M688.53,165.77c-.71.6-1.31,1.14-1.74,1.53-1.04.71-1.96,1.2-2.78,1.47s-1.58.54-2.23.71c0-.44.49-1.42,1.42-2.94.93-1.53,2.29-3.76,4.09-6.7l-.11-.11c-3.87,3.16-5.89,4.8-6.05,4.9-3.11,0-6.32,1.31-9.75,3.87-1.2.76-1.85,1.53-1.91,2.29l-.11,3.6-.65,11.72c-.27,7.79.22,12.86,1.42,15.15.71.49,1.74.71,3.22.65l2.18-.27h6.81l-.49,6.05c.71,0,.33,0-1.04,0s-3.71,0-7.08.11l-27.74.76.27-5.01c1.69-.27,3.11-.49,4.2-.71s1.8-.44,2.23-.71c1.69-.76,2.83-3.81,3.32-9.1.11-1.47.16-3.38.22-5.83s.05-5.39.05-8.94c0-5.39-.27-8.72-.93-10.03-.49-1.04-1.74-1.53-3.71-1.53-.16,0-.38.16-.65.44s-.54.6-.82.98c-.27.33-.6.65-.93.98-.27.33-.49.44-.6.44l-3.32-7.3c9.43,0,17.33-3.71,23.76-11.17.27,3.87.38,7.52.38,11.06.93-.44,2.02-.93,3.27-1.53,1.25-.6,2.62-1.31,4.2-2.07.44-.16,1.14-.49,2.18-.93l3.87-1.8c.93-.44,1.8-.87,2.62-1.36s1.58-.93,2.23-1.36l1.53.76c.49.27,1.2.6,2.13,1.09s1.96,1.09,3.16,1.85c1.2,1.2,1.8,2.72,1.8,4.63,0,.87-.6,1.36-1.8,1.53-1.63.11-2.83.33-3.6.65-.93.87-1.8,1.58-2.51,2.18Z"/>
        <path class="cls-2" d="M712.99,188.93c.11,2.29.98,4.36,2.72,6.16,3.32,4.03,8.61,6.05,15.8,6.05,4.96,0,10.74-1.91,17.33-5.67l5.01,1.04c-3.54,3.49-7.96,6.43-13.35,8.72-5.83,2.56-11.01,3.87-15.53,3.87-7.52,0-13.79-2.29-18.75-6.81-4.9-4.63-7.3-10.74-7.3-18.36s2.45-14.66,7.3-20.33c5.23-5.99,11.77-8.99,19.67-8.99,14.93,0,23.98,6.1,27.25,18.36l.38,7.57c-4.63.71-8.94,1.14-12.91,1.42s-7.74.38-11.23.38c-2.4,0-4.52,0-6.43-.11-1.91-.05-3.54-.22-4.9-.38l-5.39-.76.38,7.85h-.05ZM735.01,162.83c-.6-.16-1.69-.11-3.32.11-1.04.16-1.96.33-2.83.38-.87.11-1.63.11-2.29.11-7.79,0-12.32,3.87-13.62,11.55l9.26-2.07s1.25.54,2.94.93c2.56.6,4.69.98,6.43,1.14,5.29.16,8.72,0,10.14-.49-1.14-6.1-3.32-9.97-6.7-11.72v.05ZM722.15,172.96l.65-.11c-.44,0-.65,0-.65.11Z"/>
        <path class="cls-2" d="M789.29,207.73c-3.65.98-7.19,1.47-10.63,1.47-1.8,0-4.36-.27-7.63-.76-3.32-.49-7.47-1.36-12.53-2.56,3.16-.87,4.74-2.02,4.74-3.43,0-.33-.38-1.09-1.14-2.29l-.93-1.69c0-.87-.54-2.18-1.69-3.98-.87-1.2-1.58-2.18-2.13-3-.54-.82-.93-1.58-1.09-2.23,2.23,2.51,4.14,3.71,5.78,3.71.87,0,1.63-.33,2.29-.93,0,1.69.71,3,2.07,3.87.6.44,2.89,1.69,6.81,3.71,3.16,1.36,6.32,2.07,9.54,2.07,2.51,0,5.01-.38,7.57-1.14,1.96-.76,2.94-2.29,2.94-4.47,0-3.05-2.07-5.83-6.16-8.34-1.04-.49-2.4-1.14-4.09-1.91-1.74-.76-3.87-1.69-6.43-2.67-4.74-1.69-8.12-3.32-10.3-4.85-3.87-2.67-5.78-5.83-5.78-9.65,0-5.99,4.03-10.74,12.1-14.22,3.76-1.63,8.12-2.45,12.97-2.45,2.72,0,7.85.38,15.31,1.09-.16.33-.27.65-.27.98v1.09c0,3.32,1.25,7.74,3.71,13.24l-8.61-8.5c.11.33.11.82.11,1.42,0,.93-.38,1.42-1.14,1.42-.6,0-1.09-.11-1.42-.38-3.32-1.31-5.89-2.29-7.63-2.94-1.74-.71-2.78-1.04-3-1.04-5.67,0-8.5,2.18-8.5,6.54,0,1.36.49,2.45,1.42,3.22.71.6,2.07,1.42,4.2,2.4,2.07.98,4.9,2.13,8.39,3.38,5.72,2.13,9.92,4.3,12.48,6.54,4.03,3.16,6.05,7.14,6.05,11.83,0,5.34-2.02,8.94-6.05,10.79-3.92,2.13-7.74,3.71-11.39,4.69h.05Z"/>
      </g>
      <path class="cls-2" d="M903.72,216.01l-12.42-26.97-26.59-12.04,26.59-12.42,12.42-26.97,12.42,26.97,26.97,12.42-26.97,12.04-12.42,26.97Z"/>
    </g>
  </g>
</svg>