<?xml version="1.0" encoding="UTF-8"?>
<svg id="Calque_1" data-name="Calque 1" xmlns="http://www.w3.org/2000/svg" viewBox="0 0 1018.8 348.4">
  <defs>
    <style>
      .cls-1 {
        fill: #f5bed7;
      }

      .cls-1, .cls-2 {
        stroke-width: 0px;
      }

      .cls-2 {
        fill: #faf9e1;
      }
    </style>
  </defs>
  <g id="Calque_1-2" data-name="Calque 1-2">
    <g>
      <g id="Calque_1-2-2" data-name="Calque 1-2">
        <polygon class="cls-1" points="837.9 347.71 821.8 347.76 805.7 340.48 789.6 343.96 773.44 344.97 757.34 340.95 741.24 346.18 725.14 340.8 708.99 340.8 692.89 341.8 676.79 346.08 660.69 340.37 644.54 339.95 628.44 343.22 612.34 344.39 596.24 347.55 580.14 342.38 563.98 345.13 547.88 347.39 531.78 342.12 515.63 343.01 499.53 342.12 483.43 346.18 467.33 348.08 451.18 348.4 435.08 345.97 418.97 344.02 402.82 340.74 386.72 342.12 370.62 339.58 354.47 345.13 338.37 340.9 322.27 340.8 306.17 346.34 290.01 340.37 273.91 345.02 257.81 345.86 241.66 346.66 225.56 342.12 209.46 343.22 193.31 342.7 177.21 341.96 160.47 348.19 144.27 343.86 128.06 340.43 112.38 335.36 100.56 322.48 83.56 319.84 68.25 313.14 56.06 302.26 45.61 289.8 38.69 275.08 26.39 264.31 18.85 250.32 10.08 236.75 12.09 219.7 6.92 205.13 6.07 189.77 .95 174.52 0 174.52 4.59 159.15 8.23 144.16 6.18 127.75 12.99 113.39 20.11 99.35 26.76 84.99 37.64 73.27 43.39 57.27 58.28 49.15 73.43 42.44 82.35 27.29 97.5 20.69 111.7 12.04 129.17 12.3 144.85 8.13 160.53 1.37 177.21 .79 193.31 .42 209.41 3.8 225.56 7.02 241.66 2.9 257.76 7.87 273.91 6.44 290.01 8.08 306.12 7.97 322.22 .95 338.32 .69 354.47 2.8 370.57 7.76 386.67 2.59 402.77 1.79 418.92 3.64 435.02 6.39 451.12 8.92 467.22 .74 483.38 2.27 499.48 5.49 515.58 5.81 531.73 7.23 547.83 5.49 563.93 1.11 580.03 7.28 596.18 0 612.28 9.34 628.38 6.12 644.54 9.03 660.64 1 676.74 5.81 692.84 .9 708.99 9.66 725.09 7.34 741.19 7.18 757.34 2.11 773.44 2.59 789.54 7.39 805.7 8.55 821.8 4.86 837.9 2.9 854.63 1.32 869.89 10.29 885.25 14.67 902.35 14.78 917.4 21.12 931.86 28.77 942.63 41.28 959.94 45.93 965.85 62.5 977.89 72.95 989.4 84.41 994.2 99.77 998.85 114.6 1003.54 129.22 1013.26 143.05 1016.64 158.63 1015.1 174.52 1018.8 174.52 1013.15 190.14 1012.94 205.98 1011.09 221.92 998.95 234.48 993.62 249.05 987.39 263.46 976.83 275.34 969.76 290.01 958.94 302.1 943.68 309.12 930.75 318.63 915.13 323.53 903.25 336.63 886.62 339.05 870.89 344.07 854.21 343.33 837.9 347.71"/>
      </g>
      <g>
        <path class="cls-2" d="M310.65,232c.84-.11,2.16-.16,4.06-.26,1.85-.11,3.75-.16,5.6-.26,1.85-.11,4.22-.16,7.02-.26,1.74-.69,2.74-2.01,3.01-3.96,0-2.43.53-5.07,1.64-7.97-15.68-.26-28.45-5.12-38.22-14.57-9.24-8.97-13.83-18.9-13.83-29.77,0-8.82,3.01-16.73,8.97-23.91,5.23-6.49,12.14-11.56,20.8-15.31,8.39-3.59,17-5.33,25.92-5.33,13.67,0,25.71,3.91,36.11,11.72,11.3,8.45,16.94,19.32,16.94,32.52,0,8.97-2.74,16.94-8.23,23.91-1.27,1.9-3.11,3.96-5.6,6.12s-5.33,4.22-8.45,6.18c-3.17,1.95-6.49,3.64-10.08,5.07s-7.13,2.38-10.72,2.85c-.42.11-.79.16-1.16.21-.37,0-.79.05-1.16.05.16,5.33.53,8.87,1.11,10.72.11.16.69.32,1.85.42s2.48.26,3.96.42c1.48.16,2.96.32,4.43.48,1.43.16,2.53.26,3.27.37h.74s-.16.11-.26.11c.11.11.32.11.63.11l2.48,4.96-51.68.48.9-5.12-.05.05ZM354.26,145.11c-4.17-2.85-8.6-4.22-13.46-4.22-2.06,0-5.07.69-8.97,2.01-1.9.69-3.59,1.16-5.12,1.43-1.48.26-2.69.42-3.59.42-.58,0-1.32,0-2.22-.05s-1.85-.11-2.8-.21-1.9-.16-2.8-.21c-.9,0-1.69-.05-2.22-.05-3.06,0-5.54.79-7.5,2.38-7.13,5.96-10.72,13.78-10.72,23.38,0,12.19,4.43,22.28,13.3,30.25,6.55,5.81,14.09,9.4,22.54,10.72v-.11c-.16-1.58-.32-3.54-.48-5.86-.16-2.32-.42-5.01-.74-8.08-.26,0-.63,0-1.11-.05-.48,0-1.11-.11-1.85-.21-3.38-.32-5.12-1.11-5.12-2.38,0-1.58.9-2.53,2.74-2.85,5.81-1.32,11.82-4.12,18.05-8.34.84,0,2.11.26,3.85.74-.58,2.01-1.11,4.59-1.53,7.87-.48,3.22-.74,7.07-.95,11.56-.11,1.43-.16,2.8-.26,4.17-.11,1.37-.11,2.74-.11,4.06,2.43-.16,4.86-.53,7.34-1.06,2.48-.53,4.54-1.27,6.23-2.16,1.32-.63,2.59-1.43,3.75-2.22,1.16-.84,2.32-1.69,3.48-2.64,6.39-5.65,9.61-13.51,9.61-23.65,0-2.8-.26-5.6-.74-8.29-.48-2.69-1.32-5.28-2.48-7.76-3.48-7.81-8.82-13.99-16.05-18.53l-.11-.05Z"/>
        <path class="cls-2" d="M437.4,211.26c-11.77,4.91-20.22,7.34-25.29,7.34-5.65,0-9.87-2.11-12.72-6.33-2.48-3.75-3.59-8.45-3.38-14.2l.74-14.57c0-1.16,0-2.16-.11-3.06s-.21-1.64-.37-2.32c-.16-.48-.63-.74-1.37-.74h-.11c-.32.32-1.11.63-2.38.9v-5.86l15.2-7.6c2.01,0,2.96.95,2.85,2.85-.69,7.13-1.11,12.93-1.37,17.42-.26,4.49-.37,7.65-.37,9.61,0,4.65.74,8.39,2.22,11.19,1.11,2.74,4.17,4.12,9.34,4.12,3.17,0,8.82-1.64,16.94-4.96,0-1.27,0-2.32.05-3.22s.11-1.58.21-2.01c.48-12.51.48-19.53,0-21.06-.26-1.16-.79-1.85-1.64-2.11.26-.26-.58-.48-2.48-.74l-.37-5.23c2.59.11,5.17-.48,7.87-1.74l11.35-5.49-1.85,26.76c-.11,2.06-.16,3.8-.21,5.23,0,1.43-.05,2.59-.05,3.48,0,2.64.05,4.91.21,6.81.11,1.85.37,3.43.79,4.65l-1.74,2.11c-.63.84-1.11,1.48-1.37,1.95s-.48.79-.63.95c0,.11.11.16.26.26.26.16,1.64-.58,4.12-2.22l3.59-2.38c.48,0,.74.26.74.74l.11.74s.21-.16.32-.26.26-.26.42-.48l3.38,2.85c-5.81,4.38-10.87,6.6-15.2,6.6-1.74,0-3.48-.37-5.23-1.11-1.16-3.17-2.01-6.12-2.48-8.82v-.05Z"/>
        <path class="cls-2" d="M461.05,218.22l.9-5.12c1.74-.16,3.06-.26,3.91-.37s1.37-.11,1.43-.11c1.74-.58,2.74-1.9,3.01-3.96,0-2.64.63-5.6,2.01-8.82l-1.64-7.6c-.16-1.58-.32-3.54-.48-5.86-.16-2.32-.42-5.01-.74-8.08-.26,0-.63,0-1.11-.05-.48,0-1.11-.11-1.85-.21-3.38-.42-5.12-1.21-5.12-2.38,0-1.58.9-2.53,2.74-2.85,5.91-1.43,11.93-4.17,18.05-8.34.84,0,2.11.26,3.85.74-.58,2.01-1.11,4.59-1.53,7.87-.48,3.22-.74,7.07-.95,11.56l-.26,4.96c-.11,1.64-.11,3.27-.11,4.86,0,8.55.37,14.09,1.11,16.58.32.48,1.9.9,4.75,1.27h.74s-.16.11-.26.11c.05.11.26.11.63.11l2.48,4.96-31.51.74h-.05ZM477.73,154.98l-4.38-9.45-9.34-4.22,9.34-4.38,4.38-9.45,4.38,9.45,9.45,4.38-9.45,4.22-4.38,9.45Z"/>
        <path class="cls-2" d="M497.89,167.18c1.43-1.85,2.11-3.33,2.11-4.49,0-.48-.11-1.06-.37-1.74h6.49c-.26-1.64-.63-2.74-1.11-3.22-.11-.26.21-.9.9-1.85.84-1.06,1.27-1.64,1.27-1.74,0-.26-.26-.37-.74-.37h-1.27l.26-2.01v-4.96l3.22.11c.74.16,1.64,0,2.74-.63.32-.32.53-.48.63-.48,1,0,1.48.32,1.48,1,0,.42-.11.95-.32,1.53-.21.63-.58,1.37-1.06,2.32l9.61-7.6c-1.32,4.06-2.38,10.03-3.11,17.95h16.42s-.37.74-.9,1.48-1.21,1.74-2.11,3.01c-1.16,1.48-1.74,2.96-1.74,4.38,0,.26.11.69.26,1.37h-12.46l-.11,1c.58.48,1.11,2.22,1.48,5.12-.11,2.43-.16,5.07-.21,7.92,0,2.85-.05,5.91-.05,9.13,0,8.55.37,13.83,1.11,15.84.48,1.43,3.59,2.38,9.34,2.85v5.49l-18.42-1c-4.65,0-9.98.26-15.94.74v-5.12c3.59-.48,6.07-1.11,7.5-1.85,2.06-1.06,3.38-3.17,3.85-6.23.69-3.96.9-7.23.74-9.71l-.74-19.43v-4.75h-11.45c.11-.42,1-1.74,2.74-3.96l-.05-.11Z"/>
        <path class="cls-2" d="M537.11,167.18c1.43-1.85,2.11-3.33,2.11-4.49,0-.48-.11-1.06-.37-1.74h6.49c-.26-1.64-.63-2.74-1.11-3.22-.11-.26.21-.9.9-1.85.84-1.06,1.27-1.64,1.27-1.74,0-.26-.26-.37-.74-.37h-1.27l.26-2.01v-4.96l3.22.11c.74.16,1.64,0,2.74-.63.32-.32.53-.48.63-.48,1,0,1.48.32,1.48,1,0,.42-.11.95-.32,1.53-.21.63-.58,1.37-1.06,2.32l9.61-7.6c-1.32,4.06-2.38,10.03-3.11,17.95h16.42s-.37.74-.9,1.48c-.48.74-1.21,1.74-2.11,3.01-1.16,1.48-1.74,2.96-1.74,4.38,0,.26.11.69.26,1.37h-12.46l-.11,1c.58.48,1.06,2.22,1.48,5.12-.11,2.43-.16,5.07-.21,7.92,0,2.85-.05,5.91-.05,9.13,0,8.55.37,13.83,1.11,15.84.48,1.43,3.59,2.38,9.34,2.85v5.49l-18.42-1c-4.65,0-9.98.26-15.94.74v-5.12c3.59-.48,6.07-1.11,7.5-1.85,2.06-1.06,3.38-3.17,3.85-6.23.63-3.96.9-7.23.74-9.71l-.74-19.43v-4.75h-11.45c.11-.42,1-1.74,2.74-3.96l-.05-.11Z"/>
        <path class="cls-2" d="M587.9,198.9c.11,2.22.95,4.22,2.64,5.97,3.22,3.91,8.34,5.86,15.31,5.86,4.8,0,10.4-1.85,16.79-5.49l4.86,1c-3.43,3.38-7.71,6.23-12.93,8.45-5.65,2.48-10.66,3.75-15.04,3.75-7.28,0-13.36-2.22-18.16-6.6-4.75-4.49-7.07-10.4-7.07-17.79s2.38-14.2,7.07-19.69c5.07-5.81,11.4-8.71,19.06-8.71,14.46,0,23.23,5.91,26.39,17.79l.37,7.34c-4.49.69-8.66,1.11-12.51,1.37s-7.5.37-10.87.37c-2.32,0-4.38,0-6.23-.11-1.85-.05-3.38-.21-4.75-.37l-5.23-.74.37,7.6h-.05ZM609.17,173.62c-.58-.16-1.69-.11-3.22.11-1,.16-1.9.32-2.74.37-.84.11-1.58.11-2.22.11-7.55,0-11.93,3.75-13.2,11.19l8.97-2.01s1.21.53,2.85.9c2.48.58,4.54.95,6.23,1.11,5.17.16,8.45,0,9.82-.48-1.06-5.91-3.22-9.66-6.49-11.35v.05ZM596.76,183.49l.63-.11c-.42,0-.63,0-.63.11Z"/>
        <path class="cls-2" d="M671.77,176.52c-.69.58-1.27,1.11-1.69,1.48-1,.69-1.9,1.16-2.69,1.43s-1.53.53-2.16.69c0-.42.48-1.37,1.37-2.85s2.22-3.64,3.96-6.49l-.11-.11c-3.75,3.06-5.7,4.65-5.86,4.75-3.01,0-6.12,1.27-9.45,3.75-1.16.74-1.79,1.48-1.85,2.22l-.11,3.48-.63,11.35c-.26,7.55.21,12.46,1.37,14.67.69.48,1.69.69,3.11.63l2.11-.26h6.6l-.48,5.86c.63,0,.32,0-1,0s-3.59,0-6.86.11l-26.87.74.26-4.86c1.64-.26,3.01-.48,4.06-.69s1.74-.42,2.16-.69c1.64-.74,2.74-3.7,3.22-8.82.05-1.43.16-3.27.21-5.65s.05-5.23.05-8.66c0-5.23-.32-8.45-.9-9.71-.48-1-1.69-1.48-3.59-1.48-.16,0-.37.16-.63.42-.26.26-.53.58-.79.95-.32.32-.58.63-.9.95s-.48.42-.58.42l-3.22-7.07c9.13,0,16.79-3.59,23.02-10.82.26,3.75.37,7.28.37,10.72.9-.42,1.95-.9,3.17-1.48,1.21-.58,2.53-1.27,4.06-2.01.42-.16,1.11-.48,2.11-.9l3.75-1.74c.9-.42,1.74-.84,2.53-1.32s1.53-.9,2.16-1.32l1.48.74c.48.26,1.16.58,2.06,1.06s1.9,1.06,3.06,1.79c1.16,1.16,1.74,2.64,1.74,4.49,0,.84-.58,1.32-1.74,1.48-1.58.11-2.74.32-3.48.63-.9.84-1.74,1.53-2.43,2.11Z"/>
      </g>
      <path class="cls-2" d="M754.44,225.14l-12.04-26.13-25.76-11.67,25.76-12.04,12.04-26.13,12.04,26.13,26.13,12.04-26.13,11.67-12.04,26.13Z"/>
    </g>
  </g>
</svg>