<?xml version="1.0" encoding="utf-8"?>
<!-- Generator: Adobe Illustrator 28.1.0, SVG Export Plug-In . SVG Version: 6.00 Build 0)  -->
<svg version="1.1" id="Calque_1" xmlns="http://www.w3.org/2000/svg" xmlns:xlink="http://www.w3.org/1999/xlink" x="0px" y="0px"
	 viewBox="0 0 2000 2000" style="enable-background:new 0 0 2000 2000;" xml:space="preserve">
<style type="text/css">
	.st0{fill:#7A8FFF;}
	.st1{opacity:0.2;}
	.st2{fill:#FFFFFF;}
	.st3{fill:#363325;}
	.st4{opacity:0.3;}
</style>
<g>
	<path class="st0" d="M1819.7,665.2c-10.4-28.6-149,3.1-214,19.5c-65,16.4-140,8-247.4-34.8c-107.5-42.8-137.5-150.9-194.9-252.8
		c-57.5-101.9-149.7-93.4-149.7-93.4c-197.4,14.9-95.7,157.2-306.4,303.5c-82.2,57.1-198.1,51.1-198.1,51.1s-323.9-2-332.2-4.3
		c0,0,6.2,180.7,87.7,279.5c23,27.9,111.3,40.4,111.3,40.4c21.1,53.3,80.5,105.1,116.5,139c36,33.8,76,129.1,76,129.1l-1-225.9
		l38.2,252l104.9,36.2c13.7,2.6,13.7,81.5,13.7,81.5l26.4,5.6l30.8,58.1l160.4,103.6c0,0,4.5-47.3,11.1-47.3
		c6.7,0,51.3,10.9,51.3,10.9l13.3,76.8l90.4,103.2l-26.1-94.8c2.5,2.6,28.7-35.7,31.2-35.7c66.1-0.2,267.7-66.2,267.7-66.2l-12.5-55
		c85-57.1,323.8-363.6,366.9-434C1814.7,881,1831.6,698,1819.7,665.2z M1139.1,1540.4c-21.6,1-39.7-6.4-40.5-16.5
		c-0.7-10.1,16.2-19.2,37.8-20.2c21.6-1,39.7,6.4,40.5,16.5C1177.6,1530.3,1160.7,1539.4,1139.1,1540.4z"/>
	<g>
		<g class="st1">
			<path class="st2" d="M1537.1,759.8c-68.6-1-136.8-19.1-193-51.2c40.7,6.7,83.6,4.4,122.8-6.7c9.6-2.7,19.8-6.8,24.8-13.6
				c-38.9-5.8-82.8-18.3-134.1-38.8c-107.5-42.8-137.5-150.9-194.9-252.8c-57.5-101.9-149.7-93.4-149.7-93.4
				c-197.4,14.9-95.7,157.2-306.4,303.5C624.5,663.9,508.5,658,508.5,658s-9.8-0.1-26.1-0.2l0.5,0.5c32.4,34.9,72.3,65.1,117.3,88.8
				c-11.6-11.9-19-26.4-21-41.5c54.6,64.2,119.4,122.6,192.2,173.4c-6.7-47.1-13.4-94.3-20.1-141.4C796.6,804.2,835,874,865.9,945.8
				c9.8-51.9,12.4-104.7,7.8-157.1c76.5,56.4,101.6,244.3,186.8,291.7c12.2,51.8-9.8-160-16.3-244.3c-1.3-16.9-5.9-97.3,4.5-111.9
				c11.8-16.4,38.6-22.1,61.5-18.8c23,3.2,43.4,13.4,64.1,22.2C1284.6,774.7,1416.9,786.4,1537.1,759.8z"/>
		</g>
		<g class="st1">
			<path class="st2" d="M1605.1,684.7c-65,16.4-140,8-247.4-34.8c-107.5-42.8-137.5-150.9-194.9-252.8
				c-57.5-101.9-149.7-93.4-149.7-93.4c-197.4,14.9-95.7,157.2-306.4,303.5c-82.2,57.1-198.1,51.1-198.1,51.1s-110.9-0.7-204.5-1.7
				c49.1,92.8,119.3,199.7,271.4,266.1c-13-17.8-25.9-35.6-38.9-53.4C633,918.2,645.7,977.7,716,978.9c10.4,0,32.8-26.8,38.9-25.5
				c20.6,94.1,52,186.7,93.7,276c21.5-35.6,18.8-133.2,40.3-168.8c14.5,34.9,16.4,125.8,41.6,171c8.9-66.9,15.3-153.5,15.3-221.6
				c73,75,63.9,216.6,97,308.5c26.9,74.4,90.7,139.5,173.8,177.2c81-160.4,31.8-357.8-9.2-530c48.7,64.2,91.7,152.9,140.4,217.2
				c-46.4-120.4-92.8-240.8-139.2-361.2c30.8,25.2,61.6,50.3,92.3,75.5c-27.6-32-55.2-63.9-82.8-95.9
				c60.2,28.1,121.4,56.5,188.6,70.3s142.6,11.4,200.9-19.2c85.4-44.9,115.4-137.4,181.7-198.3
				C1742.5,651.8,1653.7,672.4,1605.1,684.7z"/>
		</g>
		<g>
			<path class="st3" d="M1462.3,1294.4c0,0-0.3-0.3-0.7-1c-0.5-0.8-1.1-1.8-1.8-3c-1.6-2.8-3.9-6.6-6.7-11.5
				c-5.8-10.2-14.1-24.6-24.4-42.5c-20.5-35.9-49.1-85.4-79.5-140.5c-30.3-55.1-55.8-105.7-73.1-142.6c-8.6-18.5-15.5-33.4-20-43.9
				c-2.2-5.1-3.9-9.1-5.2-12c-0.5-1.3-1-2.3-1.3-3.1c-0.3-0.7-0.4-1.1-0.4-1.1s0.2,0.3,0.6,1c0.4,0.8,0.9,1.8,1.5,3.1
				c1.3,2.8,3.2,6.8,5.6,11.9c4.8,10.3,11.9,25.2,20.7,43.6c17.7,36.8,43.4,87.2,73.7,142.3c30.3,55.1,58.7,104.6,78.8,140.7
				c9.9,17.9,18,32.5,23.6,42.7c2.7,5,4.8,8.9,6.3,11.7c0.6,1.3,1.2,2.3,1.6,3.1C1462.2,1294,1462.3,1294.3,1462.3,1294.4z"/>
		</g>
		<g class="st4">
			<path d="M1440.8,1363.4c14.1-18.3,25.6-38.5,25.9-60.1c0.1-3.4-0.6-7.6-4.5-9c-3.8-1.4-8.1,0.8-11.3,2.9
				c-38.4,24.8-74.4,48.1-112.8,72.9l23.9,74.8C1362,1445,1393.4,1424.6,1440.8,1363.4z"/>
		</g>
		<g>
			<path class="st3" d="M1338.1,1370.2c-0.1-0.1,0.6-0.6,1.9-1.5c1.6-1.1,3.5-2.4,5.9-4c5.4-3.6,12.9-8.6,21.9-14.6
				c18.9-12.3,44.6-29,72.9-47.5c3.6-2.3,7.1-4.6,10.6-6.8c1.9-1.1,3.9-2.2,6.4-2.6c2.5-0.5,5.5,0.1,7.2,1.7
				c1.7,1.5,2.3,3.4,2.7,5.1c0.3,1.8,0.3,3.5,0.1,5.1c-0.1,3.3-0.7,6.5-1.4,9.7c-2.8,12.5-8.2,23.1-13.2,31.7
				c-5.1,8.6-10,15.3-13.5,19.8c-1.8,2.3-3.2,4-4.2,5.1c-1,1.2-1.6,1.7-1.6,1.7c-0.2-0.1,1.8-2.6,5-7.2c3.2-4.6,7.9-11.4,12.7-20
				c4.8-8.6,9.9-19.2,12.6-31.4c0.6-3.1,1.2-6.2,1.2-9.4c0.2-3.1,0.1-6.7-2.2-8.9c-1.2-1-3-1.4-4.9-1.1c-1.9,0.3-3.7,1.3-5.4,2.3
				c-3.5,2.2-7,4.5-10.6,6.8c-28.5,18.3-54.4,34.9-73.4,47.1c-9.3,5.8-16.9,10.6-22.4,14.1c-2.5,1.5-4.5,2.8-6.2,3.8
				C1339,1369.8,1338.2,1370.3,1338.1,1370.2z"/>
		</g>
		<g>
			<path class="st3" d="M1374.5,1500c0,0-0.2-0.4-0.5-1.2c-0.3-0.9-0.7-2.1-1.1-3.7c-1-3.3-2.3-8.1-4.1-14.1
				c-3.6-12.4-8.7-30.1-15-51.9c-12.8-43.8-31.4-104.1-53.5-170.3c-22.1-66.3-43.4-126.1-59-169.3c-7.8-21.5-14-39-18.4-51.2
				c-2.1-6-3.8-10.6-4.9-13.9c-0.5-1.5-0.9-2.7-1.2-3.6c-0.3-0.8-0.4-1.2-0.3-1.3c0,0,0.2,0.4,0.6,1.2c0.4,0.9,0.9,2.1,1.5,3.6
				c1.3,3.3,3.1,7.9,5.4,13.8c4.6,12.2,11.1,29.6,19.2,51c16,43.1,37.5,102.9,59.7,169.2c22.1,66.3,40.5,126.7,52.8,170.5
				c6.2,21.9,11,39.7,14.2,52c1.5,6.1,2.7,10.8,3.6,14.2c0.4,1.5,0.7,2.8,0.9,3.7C1374.5,1499.6,1374.6,1500,1374.5,1500z"/>
		</g>
		<g>
			<path class="st3" d="M930.3,1038c0.7,0,3.7,113.8,6.8,254.3c3.1,140.5,5,254.3,4.3,254.3c-0.7,0-3.7-113.8-6.8-254.3
				C931.5,1151.9,929.6,1038,930.3,1038z"/>
		</g>
		<g>
			<path class="st3" d="M882,1312.8c0.1,0,0.1,0.7,0,1.9c-0.1,1.5-0.2,3.3-0.4,5.5c-0.4,4.8-1.1,11.7-2.2,20.2
				c-2.1,17.1-5.5,40.6-10.3,66.5c-4.9,25.9-10.2,49.2-14.5,66c-2.1,8.4-4,15.2-5.3,19.9c-0.6,2.2-1.2,3.9-1.6,5.4
				c-0.4,1.2-0.6,1.9-0.7,1.8c-0.1,0,0-0.7,0.2-1.9c0.3-1.5,0.7-3.3,1.2-5.4c1.1-5,2.7-11.8,4.5-20c3.8-16.9,8.9-40.2,13.7-66
				c4.8-25.8,8.5-49.3,11.1-66.3c1.2-8.3,2.2-15.1,3-20.1c0.4-2.2,0.6-4,0.9-5.5C881.7,1313.5,881.9,1312.8,882,1312.8z"/>
		</g>
		<path class="st4" d="M706.7,1305.7c0,0,6.6,7.1,9.2,37.1c2.8,31.8,2,43,2,43c0.8,0.6,63.3-23.4,76.3-31.5c7.4-4.6,14.5-11.9,0-18
			C779.7,1330.3,706.7,1305.7,706.7,1305.7z"/>
		<g>
			<path class="st3" d="M718,1385.9c0-0.1,1-0.5,3-1.2c2.2-0.8,5.1-1.8,8.7-3c7.6-2.7,18.5-6.6,31.4-12.3c6.5-2.8,13.4-6.1,20.8-9.7
				c3.6-1.8,7.6-3.7,11.2-5.8c3.6-2.1,7.1-4.8,7.3-8.3c0.3-3.5-3.2-6.5-7.3-8.6c-4.1-2.1-9-3.9-13.7-5.7
				c-9.6-3.6-19.8-7.1-30.1-10.6c-41.6-14.1-79.5-26.6-106.7-36.1c-13.6-4.7-24.5-8.7-32-11.6c-3.7-1.4-6.6-2.6-8.5-3.5
				c-1.9-0.8-2.9-1.3-2.9-1.4c0-0.1,1.1,0.3,3.1,1c2,0.7,4.9,1.8,8.7,3.1c7.6,2.7,18.6,6.4,32.3,11c27.3,9.2,65.3,21.4,107,35.5
				c10.4,3.6,20.5,7.1,30.2,10.7c4.8,1.9,9.6,3.6,14,5.9c2.2,1.2,4.3,2.5,5.8,4.3c1.6,1.7,2.6,3.9,2.4,6c-0.3,4.4-4.6,7.5-8.3,9.6
				c-3.9,2.2-7.7,3.9-11.5,5.8c-7.4,3.6-14.5,6.8-21.1,9.6c-13.1,5.5-24.2,9.3-31.9,11.7c-3.9,1.2-6.9,2.1-8.9,2.7
				C719.1,1385.6,718,1385.9,718,1385.9z"/>
		</g>
		<g>
			<path class="st3" d="M1452.1,1050.7c-0.1,0-0.9-0.5-2.3-1.6c-1.6-1.3-3.8-2.9-6.4-4.8c-5.5-4.2-13.3-10.5-22.8-18.3
				c-19-15.6-44.6-37.8-71.2-63.3c-26.6-25.5-49.3-49.5-65.1-67.2c-7.9-8.8-14.1-16.1-18.3-21.1c-2-2.4-3.6-4.3-4.8-5.8
				c-1.1-1.3-1.6-2.1-1.5-2.1c0.1,0,0.7,0.6,1.9,1.9c1.3,1.5,3.1,3.3,5.2,5.6c4.7,5.1,11.1,12.1,19,20.8
				c16.1,17.5,39,41.3,65.6,66.7c26.6,25.4,51.9,47.7,70.6,63.6c9.2,7.8,16.8,14.1,22.2,18.7c2.5,2.1,4.5,3.8,6,5.1
				C1451.5,1050,1452.1,1050.6,1452.1,1050.7z"/>
		</g>
		<g>
			<path class="st3" d="M1735.1,706.5c0,0-0.2,0.5-0.7,1.3c-0.5,1-1.3,2.3-2.2,3.9c-2,3.5-4.7,8.6-8.3,15c-7.2,13-17.6,31.9-31.2,55
				c-13.7,23-30.4,50.4-52,79.5c-10.9,14.5-22.9,29.5-38,43.7c-7.6,7-15.9,14-26.1,19.3c-4.9,2.9-10.4,5.1-15.8,7.5
				c-5.7,1.9-11.4,4.1-17.5,5.3c-12,2.9-24.5,4.3-36.8,4.1c-12.2-0.1-24.3-1.3-35.8-3.6c-11.5-2.2-22.5-5.1-32.9-8.7
				c-10.5-3.4-20.2-7.6-29.6-11.9c-18.5-8.8-35-18.4-50-27.7c-15-9.3-28.6-18.3-41.1-26.5c-24.9-16.4-45.6-29.2-60.6-37.3
				c-7.5-4.1-13.4-7.1-17.5-9.1c-1.9-1-3.5-1.7-4.6-2.3c-1-0.5-1.5-0.8-1.5-0.8s0.6,0.2,1.7,0.7c1.2,0.5,2.7,1.2,4.7,2.1
				c4.2,1.9,10.2,4.8,17.7,8.8c15.2,7.9,36.1,20.6,61.2,36.9c12.6,8.1,26.2,17.1,41.3,26.3c15.1,9.2,31.5,18.8,49.9,27.4
				c9.3,4.2,19,8.3,29.4,11.7c10.3,3.5,21.2,6.4,32.5,8.6c11.3,2.3,23.2,3.4,35.2,3.5c12,0.2,24.3-1.2,36-4c6-1.2,11.5-3.3,17.1-5.2
				c5.3-2.3,10.7-4.4,15.5-7.3c10-5.2,18.2-12,25.7-18.9c14.9-14,26.9-29,37.9-43.4c21.6-29,38.5-56.2,52.4-79.2
				c13.8-23,24.4-41.8,31.9-54.7c3.7-6.5,6.7-11.5,8.7-14.9c1-1.7,1.8-3,2.4-3.8C1734.8,706.9,1735.1,706.5,1735.1,706.5z"/>
		</g>
		<path class="st3" d="M981.2,414.8c0-0.1-0.1-0.2-0.1-0.3c-6.4-14.2-28.4-19.5-43.2-10.4c-13.6,8.3-19.6,33.4-25.5,47
			c-8.4,19.6-25.1,23.4-30.4,43.7c-2.3,8.6,2.2,21.6,13.7,27c3.3,1.6,7.1,2.3,10.9,2.6c23.6,1.9,46.1-10.5,58.6-26.9
			c12.1-15.8,16.3-34.8,18.4-53.4C984.7,434.4,985.3,424.2,981.2,414.8z"/>
		<path class="st3" d="M1026.3,414.8c0-0.1,0.1-0.2,0.1-0.3c6.4-14.2,28.4-19.5,43.2-10.4c13.6,8.3,19.6,33.4,25.5,47
			c8.4,19.6,25.1,23.4,30.4,43.7c2.3,8.6-2.2,21.6-13.7,27c-3.3,1.6-7.1,2.3-10.9,2.6c-23.6,1.9-46.1-10.5-58.6-26.9
			c-12.1-15.8-16.3-34.8-18.4-53.4C1022.7,434.4,1022.2,424.2,1026.3,414.8z"/>
		<g>
			<path class="st3" d="M1156.1,512.1c0.1,0,0.4,1.4,0.2,3.9c-0.2,2.5-0.8,6.2-2.7,10.5c-1.9,4.3-5.4,9.2-11.2,13.3
				c-5.8,4.1-13.8,7.1-22.7,8.3c-8.9,1.2-17.5,0.6-25-0.7c-7.5-1.3-14-3.3-19.3-5.1c-5.3-1.8-9.4-3.4-12.3-4.6
				c-2.8-1.2-4.4-1.9-4.3-2c0.2-0.3,6.7,2,17.3,5.3c5.3,1.6,11.7,3.4,19.1,4.6c7.3,1.2,15.6,1.7,24.1,0.6c8.4-1.1,16.1-3.9,21.6-7.7
				c5.6-3.8,9-8.4,11.1-12.5C1156.1,517.8,1155.6,512,1156.1,512.1z"/>
		</g>
		<g>
			<path class="st3" d="M995.1,487.3c0.3,0.1-0.7,3.1-3.2,7.7c-2.5,4.6-6.8,10.8-12.9,16.9c-6.1,6.1-12.8,10.8-18,13.8
				c-5.2,3-8.8,4.4-9,4.2c-0.5-0.5,13.1-7.2,25-19.2C989,498.8,994.3,487,995.1,487.3z"/>
		</g>
		<g class="st4">
			<path d="M880.7,550.6c-8.6,0.7-16.6-3.6-23-8.3c0.3,5,0.6,8.5,5.6,12.6c4.9,4.1,12.1,6.1,19.2,6.2c7.1,0.1,14-1.4,20.6-3.4
				c18-5.5,34.2-15.1,46.3-27.3C927.2,540.3,905.8,548.7,880.7,550.6z"/>
		</g>
		<g>
			<path class="st3" d="M927.9,539.4c0.1,0.1-1.3,1-4.1,2.3c-2.8,1.3-6.9,3.1-12.3,4.8c-5.4,1.7-12,3.4-19.6,4.5
				c-7.6,0.9-16.7,1.4-25.1-2c-8.4-3.5-12.6-10.1-14.6-15.9c-2-5.9-1.8-11.4-1.5-15.9c0.4-4.5,1.1-8.1,1.6-10.6
				c0.5-2.5,0.8-3.9,1-3.8c0.4,0-0.2,5.6-0.8,14.5c-0.1,4.4-0.1,9.8,1.9,15.4c2,5.5,6.1,11.5,13.5,14.7c7.5,3,16.2,2.7,23.5,1.9
				c7.4-0.9,14-2.5,19.4-4C921.7,542.2,927.7,539.1,927.9,539.4z"/>
		</g>
		<g class="st4">
			<path d="M1067.3,538.5c13.1,8.5,27.3,15.7,43.5,19c8.5,1.7,17.7,2.6,25.9,0.2c9-2.7,15.9-9.2,19.1-16.6
				c3.2-7.4,2.9-15.6,0.7-23.2c-0.6,10-8.7,19-19.4,24c-10.6,5-23.4,6.3-35.6,5.4C1089.4,546.4,1079,541.7,1067.3,538.5"/>
		</g>
		<g>
			<path class="st3" d="M1069.6,600.9c-6.9-16.6-16.3-32.8-30.4-44.4c-10.6-8.7-18-17.7-35.6-17.5c-12.5,0.1-24.2,4.9-32.3,12.3
				c-19.4,17.5-32.9,41-37.9,66.5c-2.3,11.5-1.3,26.2,9.5,31.7c11.9,6.1,42.7-11.7,55.7-14.6c15.1-3.3,21.8,3.1,35.4,9.7
				c14.5,7.1,26.3,9.5,35.8-2.2C1079,631.2,1075.2,614.5,1069.6,600.9z"/>
			<g>
				<path class="st3" d="M1039.3,671.4c-0.2,0.2-2.1-1-5.9-2.6c-3.8-1.6-9.6-3.6-17.3-4.6c-7.6-1-17.1-1-26.7,1.6
					c-9.8,2.4-18.4,8.3-28.7,13.3c-5.1,2.5-10.7,4.5-16.5,5.2c-5.8,0.7-11.5,0.3-16.7-0.9c-10.4-2.4-17.7-8.2-21.4-13.6
					c-3.9-5.5-4.9-10.6-5-14c0-1.7,0.1-3.1,0.2-4c0.2-0.9,0.3-1.4,0.4-1.4c0.2,0,0,1.9,0.3,5.3c0.4,3.3,1.7,8.2,5.6,13.4
					c3.8,5.1,10.8,10.4,20.6,12.6c4.8,1.1,10.2,1.5,15.6,0.8c5.4-0.7,10.6-2.6,15.6-5c9.9-4.9,18.9-10.9,29.3-13.4
					c10.1-2.6,20-2.4,27.8-1.2c7.9,1.2,13.7,3.5,17.5,5.3c1.9,0.9,3.3,1.7,4.1,2.3C1038.9,671,1039.4,671.3,1039.3,671.4z"/>
			</g>
			<g>
				<path class="st3" d="M1116.6,630.3c0.3-0.1,1.9,3,2.3,8.2c0.4,5.2-0.7,12.7-5.9,19.8c-5.1,7.1-12.9,11.8-18.9,14.1
					c-6.1,2.3-10.4,2.6-10.4,2.4c-0.1-0.3,3.9-1.1,9.6-3.6c5.6-2.5,12.8-7,17.6-13.8c4.8-6.7,6.3-13.8,6.3-18.8
					C1117.2,633.5,1116.2,630.4,1116.6,630.3z"/>
			</g>
			<g class="st4">
				<path d="M1029.6,667c-14.3-4.9-31-5.2-45.5-0.6c-11.2,3.5-20.8,9.6-31.7,13.5c-10.9,4-24.4,5.5-34.3,0l-9.3-10.4
					c2.9,8.8,10.8,16.4,21,20.1c10.2,3.7,22.4,3.6,32.4-0.5c8.6-3.5,15.6-9.6,24.9-11.4c13.3-2.7,27.3,4.1,40.8,2.1
					c4.5-0.7,9.6-3.4,9-7.1C1036.3,669.8,1032.8,668.1,1029.6,667z"/>
			</g>
		</g>
		<g>
			<path class="st3" d="M982.7,1198.5c0.7,0,5.2,71.5,10.1,159.7c4.9,88.3,8.3,159.8,7.6,159.8c-0.7,0-5.2-71.5-10.1-159.7
				C985.5,1270.1,982.1,1198.5,982.7,1198.5z"/>
		</g>
		<g>
			<path class="st3" d="M674.8,991.6c0,0-0.4,0.1-1.3,0.1c-1,0-2.2,0-3.8,0c-3.3-0.1-8.2,0.1-14.5-0.5c-12.6-0.6-30.7-2.8-52.3-7.9
				c-21.6-5-46.3-13.8-71.5-26.2c-12.5-6.3-25.1-13.5-37.6-21.6c-12.3-8.2-24.4-17.3-36-27.2c-23.1-19.8-42.1-40.8-57.5-60.5
				c-15.5-19.8-27.7-38.4-37.3-54.2c-9.6-15.8-16.8-28.8-21.6-37.9c-2.4-4.5-4.2-8.1-5.4-10.4c-0.5-1.1-1-2-1.3-2.7
				c-0.3-0.6-0.4-0.9-0.4-1c0,0,0.2,0.3,0.6,0.9c0.4,0.7,0.9,1.6,1.6,2.7c1.4,2.5,3.4,5.9,5.8,10.3c5.1,8.9,12.5,21.9,22.3,37.6
				c9.8,15.7,22.1,34.2,37.7,53.8c15.5,19.7,34.4,40.4,57.4,60.2c11.5,9.8,23.5,18.9,35.8,27c12.3,8.1,24.9,15.3,37.3,21.6
				c25,12.4,49.4,21.2,70.8,26.4c21.4,5.3,39.4,7.7,51.9,8.5c6.2,0.7,11.1,0.6,14.4,0.8c1.5,0.1,2.8,0.2,3.8,0.2
				C674.4,991.6,674.8,991.6,674.8,991.6z"/>
		</g>
		<g>
			<path class="st3" d="M741.9,991.7c0,0,0.1,0.3,0.2,0.9c0.1,0.7,0.1,1.6,0.2,2.8c0.1,2.6,0.3,6.1,0.5,10.6
				c0.4,9.2,1,22.5,2.3,38.9c1.2,16.4,3.2,35.9,6.8,57.5c3.6,21.6,8.9,45.1,15.9,69.6c14.2,49.1,22,94.2,27.7,126.8
				c2.7,16.2,4.9,29.4,6.4,38.7c0.7,4.4,1.2,8,1.6,10.5c0.1,1.1,0.3,2,0.4,2.7c0.1,0.6,0.1,0.9,0,0.9c0,0-0.1-0.3-0.3-0.9
				c-0.2-0.7-0.4-1.6-0.6-2.7c-0.5-2.5-1.2-6-2.1-10.5c-1.7-9.3-4.2-22.4-7.2-38.6c-6.2-32.5-14.2-77.6-28.4-126.6
				c-7-24.5-12.4-48.2-15.8-69.8c-3.5-21.6-5.2-41.2-6.2-57.6c-1-16.4-1.3-29.8-1.5-39c0-4.5,0-8,0-10.6c0-1.1,0-2,0.1-2.8
				C741.8,992,741.9,991.7,741.9,991.7z"/>
		</g>
		<g class="st1">
			<path class="st2" d="M1074.5,329.5c-0.9-5.2-7.5-8.4-13.5-10.4c-19.3-6.3-40.6-8.4-61.1-5.9c-36.4,4.3-69,22.7-91.1,46.7
				c-22.1,24-34.4,53.3-40.4,82.9c-1.2,6.1-2.2,12.3-2.1,18.4l9.3-4.2c15-9.2,20.1-25.3,25.4-40c5.3-14.7,13.2-30.7,30.4-36.8
				c21.5-7.8,47.5,3.5,69.8-2.7c20.2-5.7,31.3-24,50.7-31.4c4.9-1.9,10.3-3.1,14.9-5.5C1071.4,338.1,1075.2,333.9,1074.5,329.5z"/>
		</g>
		<g class="st4">
			<path d="M1795,828c-17.3,41.4-69.2,130.4-104.5,163.3c-22.8,21.2-48.5,43.9-82.7,47.9c-37.1,4.4-72-14.6-99.6-35.2
				c-27.7-20.6-54-44.5-89.6-53.9c41.8,64.9,72,134.8,89.1,206.8c-52-38.8-103.9-77.6-155.9-116.4
				c50.5,72.4,101.1,144.8,151.6,217.1l4.6-0.1C1677,1135.4,1805.1,852.6,1795,828z"/>
		</g>
		<g class="st4">
			<path d="M386.4,973c36.3,28.9,93.1,39.4,141.1,26c20.1,26.5,27.5,58.3,27.5,89.5c0,31.2-7,62-14.1,92.6
				c-0.7-40.9-34-76.2-68.4-106c-34.4-29.7-72.8-58.9-88.6-97.7"/>
		</g>
	</g>
	<g>
		<path class="st3" d="M1138.3,584.2c-0.1,0.2-5.2-0.2-13.1-2c-8-1.8-18.7-5-29.6-10.1c-10.9-5.1-19.6-10.9-25.4-15.5
			c-5.8-4.6-8.8-7.8-8.6-8c0.3-0.2,3.8,2.7,9.8,7c6,4.3,14.8,9.8,25.5,14.8c10.7,5,21.1,8.4,28.8,10.4
			C1133.5,583,1138.4,583.9,1138.3,584.2z"/>
	</g>
	<g>
		<path class="st3" d="M942.7,550.3c0.2,0.2-2.1,2.6-6.4,6.3c-4.3,3.6-10.5,8.4-18,13.2c-7.5,4.8-14.8,8.6-20.2,11.2
			c-5.4,2.5-9,3.8-9.2,3.6c-0.4-0.5,13-6.8,27.8-16.3C931.5,558.8,942.1,549.9,942.7,550.3z"/>
	</g>
</g>
</svg>
