<?xml version="1.0" encoding="utf-8"?>
<!-- Generator: Adobe Illustrator 28.1.0, SVG Export Plug-In . SVG Version: 6.00 Build 0)  -->
<svg version="1.1" id="Calque_1" xmlns="http://www.w3.org/2000/svg" xmlns:xlink="http://www.w3.org/1999/xlink" x="0px" y="0px"
	 viewBox="0 0 2000 1392" style="enable-background:new 0 0 2000 1392;" xml:space="preserve">
<style type="text/css">
	.st0{fill:none;}
	.st1{enable-background:new    ;}
	.st2{fill:#F9F8E0;}
	.st3{fill:#F08EB9;}
</style>
<g>
	<rect x="-665.8" y="965.1" class="st0" width="3331.5" height="434.7"/>
	<g class="st1">
		<path class="st2" d="M237,1185.2c-31.6,0-60.6-7.4-86.7-22.2c-5.9-3-10.6-5.4-13.9-7.3c-3.4-1.9-5.5-3.9-6.3-6l4.4,66.6
			c0.4,8.9,1.1,19.9,1.9,33c0.8,13.1,1.7,28.5,2.5,46.3c-2.1,9.3-3.2,19.5-3.2,30.4c3.4,6.3,27.2,10.8,71.4,13.3l-34.2,27.9
			c-4.2-0.9-11.2-1.5-20.9-1.9c-9.7-0.4-22.2-0.6-37.3-0.6c-11,0-22.2,0.4-33.6,1.3c-11.4,0.8-22.8,1.7-34.2,2.5l-20.3,1.9
			c-3.4,0-7.1-0.4-11.1-1.3c-4-0.9-8.4-1.7-13-2.5v-22.2l28.5-7c14.4-3,22-6.8,22.8-11.4c7.2-15.6,12.5-30,15.9-43.1
			c3.4-13.1,5.1-25.2,5.1-36.2c0-16.9-2.8-32.8-8.2-47.6c-8.9-22.8-13.3-53.5-13.3-92c0-4.6,0-10.2,0-16.5c0-6.8,0.2-14.6,0.6-23.5
			c0.4-9.3,0.7-17.3,1-24.1c0.2-6.8,0.3-12.5,0.3-17.1c0-3.4,0-6.6,0-9.5c0-3-0.2-5.7-0.6-8.2l-1.3-21.6
			c-1.3-11.8-3.4-19.4-6.3-22.8c-3.8-4.6-20.5-8.5-50.1-11.4c3-2.5,5.4-4.5,7.3-6.2c1.9-1.7,4.3-3.7,7.3-6.2c0-0.4-0.7-1.4-2.2-3.1
			c-1.5-1.7-3.2-3.3-5.1-5c-1.9-1.7-3.5-3.2-4.8-4.7c-1.3-1.4-1.9-2.6-1.9-3.4c13.1,0.9,26.4,1.5,40,1.9c13.5,0.4,27.3,0.6,41.2,0.6
			c5.5,0,12.1-0.1,20-0.3c7.8-0.2,17-0.5,27.5-1c10.1-0.8,19.1-1.5,26.9-1.9c7.8-0.4,14.5-0.6,19.9-0.6
			c81.5,0,139.1,12.9,172.9,38.6c39.3,29.1,58.9,60.8,58.9,94.9c0,22.4-12.7,48.3-38,77.8C336.7,1168.1,293.5,1185.2,237,1185.2z
			 M180.1,955.6c-7.2,0-14.6,0.3-22.2,1c-7.6,0.6-15.7,1.8-24.1,3.5l-4.4,100.2c0,0.9,0,4.9,0,12.1c0,6.8,0.2,17.3,0.6,31.7
			c5.9,4.7,11.7,9,17.4,13c5.7,4,11.1,7.9,16.2,11.7c16.1,13.5,38.3,20.3,66.6,20.3c29.2,0,50.3-7.2,63.4-21.6
			c20.3-22.8,30.5-45.7,30.5-68.5c0-8.9-1.4-17.7-4.1-26.3c-2.8-8.7-6.7-17.7-11.7-27C287.9,972.3,245.2,955.6,180.1,955.6z"/>
		<path class="st2" d="M403.4,1366l4.4-26c8.9-0.8,15.5-1.5,20-1.9c4.4-0.4,6.9-0.6,7.3-0.6c8.9-3,14-9.7,15.2-20.3
			c0-13.5,3.4-28.5,10.1-45l-8.2-38.7c-0.9-8-1.7-18-2.5-29.8c-0.9-11.8-2.1-25.6-3.8-41.2c-1.3,0-3.2-0.1-5.7-0.3
			c-2.5-0.2-5.7-0.5-9.5-1c-17.3-2.1-26-6.1-26-12.1c0-8,4.6-12.9,14-14.6c30-7.2,60.7-21.4,92-42.5c4.2,0,10.8,1.3,19.7,3.8
			c-3,10.2-5.6,23.5-7.9,40c-2.3,16.5-3.9,36.2-4.8,59c-0.4,8.5-0.9,16.9-1.3,25.4c-0.4,8.5-0.6,16.7-0.6,24.7
			c0,43.6,1.9,71.7,5.7,84.4c1.7,2.5,9.7,4.7,24.1,6.3h3.8c-0.4,0.4-0.9,0.6-1.3,0.6c0.4,0.4,1.5,0.6,3.2,0.6l12.7,25.4L403.4,1366z
			 M488.4,1043.8l-22.2-48.2L418.6,974l47.6-22.2l22.2-48.2l22.2,48.2l48.2,22.2l-48.2,21.6L488.4,1043.8z"/>
		<path class="st2" d="M800.5,1275.9c7.6,11.8,14.5,21.6,20.6,29.2c6.1,7.6,11.3,13.1,15.5,16.5c11.8,9.3,29.8,14.6,53.9,15.9v29.2
			c-9.3-1.3-20.6-2.1-33.9-2.5c-13.3-0.4-28.9-0.6-46.6-0.6c-16.5,0-30.6,0.2-42.2,0.6c-11.6,0.4-21,1.3-28.2,2.5l-6.3-29.8
			c8-0.4,14.7-0.7,20-1c5.3-0.2,9-0.3,11.1-0.3c-5.9-10.2-12.4-21-19.3-32.7c-7-11.6-14.7-24.2-23.2-37.7
			c-5.1,4.7-10.4,9.5-15.9,14.6c-5.5,5.1-11.2,10.6-17.1,16.5c-17.8,18.6-26.6,30-26.6,34.3c4.6,0,10.9,1,18.7,2.9
			c7.8,1.9,13.4,2.9,16.8,2.9l3.8,28.5c-11-0.9-22.1-1.5-33.3-1.9c-11.2-0.4-22.9-0.6-35.2-0.6c-9.7,0-19.8,0.2-30.1,0.6
			c-10.4,0.4-21.3,1-32.7,1.9l1.9-27.9c6.8-1.3,12.2-2.2,16.2-2.9c4-0.6,7.1-1.4,9.2-2.2c1.7-0.8,11.2-9.2,28.5-25.1
			c17.3-15.9,43.1-39.2,77.4-70.1c-30.4-52-54.1-83.3-71-93.9c-4.7-3-22.8-6.3-54.6-10.1l3.8-26.6c10.1,0.9,19.7,1.3,28.5,1.3
			c9.3,0,18,0,26,0c22.4,0,41.4-0.4,57.1-1.3c15.6-0.8,28.3-1.7,38.1-2.5l8.2,28.5c-7.2,0.4-12.9,1-17.1,1.6
			c-4.2,0.6-7.4,1.2-9.5,1.6c-0.4,0-0.6,0.2-0.6,0.6c0,5.5,12.3,25.2,36.8,59c31.3-27.9,46.9-46.3,46.9-55.2c0-2.5-3-4.2-8.9-5.1
			l-33.6-3.8l11.4-25.4c18.6,1.3,33.7,2.1,45.4,2.5c11.6,0.4,19.8,0.6,24.4,0.6c13.5,0,32.1-1.3,55.8-3.8v27.3
			c-17.8,0.4-40.2,12.7-67.2,36.8c-2.5,2.5-8.5,8.4-17.8,17.4c-9.3,9.1-21.8,21.7-37.4,37.7L800.5,1275.9z"/>
		<path class="st2" d="M900.7,1366l4.4-26c8.9-0.8,15.5-1.5,20-1.9c4.4-0.4,6.9-0.6,7.3-0.6c8.9-3,14-9.7,15.2-20.3
			c0-13.5,3.4-28.5,10.1-45l-8.2-38.7c-0.9-8-1.7-18-2.5-29.8c-0.9-11.8-2.1-25.6-3.8-41.2c-1.3,0-3.2-0.1-5.7-0.3
			c-2.5-0.2-5.7-0.5-9.5-1c-17.3-2.1-26-6.1-26-12.1c0-8,4.6-12.9,14-14.6c30-7.2,60.7-21.4,92-42.5c4.2,0,10.8,1.3,19.7,3.8
			c-3,10.2-5.6,23.5-7.9,40c-2.3,16.5-3.9,36.2-4.8,59c-0.4,8.5-0.9,16.9-1.3,25.4c-0.4,8.5-0.6,16.7-0.6,24.7
			c0,43.6,1.9,71.7,5.7,84.4c1.7,2.5,9.7,4.7,24.1,6.3h3.8c-0.4,0.4-0.9,0.6-1.3,0.6c0.4,0.4,1.5,0.6,3.2,0.6l12.7,25.4L900.7,1366z
			 M985.7,1043.8l-22.2-48.2L916,974l47.6-22.2l22.2-48.2l22.2,48.2l48.2,22.2l-48.2,21.6L985.7,1043.8z"/>
		<path class="st2" d="M1321.9,1293.7c-12.7,46.1-50.5,69.1-113.6,69.1c-35.5,0-65.8-9.9-90.7-29.8c-26.6-20.3-40-48.2-40-83.7
			c0-31.3,8.7-57.1,26-77.4c27.5-33.8,66.8-56.5,118-67.9c9.7-2.1,17.7-3.8,23.8-5.1c6.1-1.3,10.9-1.9,14.3-1.9
			c15.2,0,38.3,3,69.1,8.9c0,3,0.4,5.3,1.3,7v-43.8c-0.4-5.5-1.3-11.1-2.5-16.8s-3-11.9-5.1-18.7c-2.5-0.8-6.1-1.3-10.8-1.3
			c-3.4,0-7.7,0.3-13,1c-5.3,0.6-12,2-20,4.1l-2.5-24.7c52-18.2,89.7-34,112.9-47.6l20.3,7c-2.1,8.9-4,18.4-5.7,28.5
			c-1.7,10.2-3.2,20.9-4.4,32.4c-1.7,9.7-4.2,28.5-7.6,56.5l-2.5,162.4c-0.9,15.7-0.6,30.6,0.6,44.7c1.3,14.2,3,27.6,5.1,40.3
			c0.4,0.4,0,2.5-1.3,6.3c-2.1,3.8-0.9,5.7,3.8,5.7c4.2,0,8.7-1,13.3-3.2v29.2c-25,7.2-42.7,10.8-53.3,10.8c-2.1,0-4.8-0.7-7.9-2.2
			c-3.2-1.5-5.6-2.2-7.3-2.2C1331.2,1381.2,1324.5,1352.1,1321.9,1293.7z M1289,1145.9c-10.6-2.1-23.3-4.2-38.1-6.3
			c-12.7-1.3-19.9-1.9-21.6-1.9c-11.4,0-22.3,1.6-32.7,4.8c-10.4,3.2-19.8,8.4-28.2,15.5c-19.9,14.4-29.8,32.6-29.8,54.6
			c0,32.6,10.4,58.6,31.1,78c20.3,19,46.9,28.5,79.9,28.5c33.4,0,57.5-19.4,72.3-58.4c-0.4-6.3-0.5-13.7-0.3-22.2
			c0.2-8.5,0.5-18,1-28.5l1.9-49.5c0-1.7-3.2-3.8-9.5-6.3C1308.2,1150.8,1299.5,1148,1289,1145.9z"/>
		<path class="st2" d="M1426.6,1366l4.4-26c8.9-0.8,15.5-1.5,20-1.9c4.4-0.4,6.9-0.6,7.3-0.6c8.9-3,14-9.7,15.2-20.3
			c0-13.5,3.4-28.5,10.1-45l-8.2-38.7c-0.9-8-1.7-18-2.5-29.8c-0.9-11.8-2.1-25.6-3.8-41.2c-1.3,0-3.2-0.1-5.7-0.3
			c-2.5-0.2-5.7-0.5-9.5-1c-17.3-2.1-26-6.1-26-12.1c0-8,4.6-12.9,14-14.6c30-7.2,60.7-21.4,92-42.5c4.2,0,10.8,1.3,19.7,3.8
			c-3,10.2-5.6,23.5-7.9,40c-2.3,16.5-3.9,36.2-4.8,59c-0.4,8.5-0.9,16.9-1.3,25.4c-0.4,8.5-0.6,16.7-0.6,24.7
			c0,43.6,1.9,71.7,5.7,84.4c1.7,2.5,9.7,4.7,24.1,6.3h3.8c-0.4,0.4-0.9,0.6-1.3,0.6c0.4,0.4,1.5,0.6,3.2,0.6l12.7,25.4L1426.6,1366
			z M1511.6,1043.8l-22.2-48.2l-47.6-21.6l47.6-22.2l22.2-48.2l22.2,48.2L1582,974l-48.2,21.6L1511.6,1043.8z"/>
		<path class="st2" d="M1936,1087.5c-4.7,14.8-8,29.4-10.1,44c-2.1,14.6-3.6,28.8-4.4,42.7c-0.4,3.8-0.6,12.2-0.6,25.3
			c0,12.7,0,30.2,0,52.5c0,32.9,0.6,53.8,1.9,62.6c6.8,15.6,15.6,23.4,26.6,23.4c8.5,0,18.2-4.4,29.2-13.3l5.1,15.2
			c-24.5,20.7-51.6,31.1-81.2,31.1c-2.1,0-4.8-0.1-7.9-0.3c-3.2-0.2-6.9-0.5-11.1-1l-9.5-1.9c-12.3,0-19-24.7-20.3-74.2
			c-12.7,46.1-50.5,69.1-113.6,69.1c-35.5,0-65.8-9.9-90.7-29.8c-26.6-20.3-40-48.2-40-83.7c0-43.1,20.1-79.7,60.3-109.7
			c37.2-28.3,77.8-42.5,121.8-42.5c24.9,0,46.7,8.7,65.3,26v-15c0.8,0,1.6-0.1,2.2-0.3c0.6-0.2,1.4-0.3,2.2-0.3
			c16.9-5.8,35.1-14.6,54.6-26.2L1936,1087.5z M1728.2,1142.4c-10.4,3.2-19.8,8.4-28.2,15.5c-19.9,14.4-29.8,32.6-29.8,54.6
			c0,32.6,10.4,58.6,31.1,78c20.3,19,46.9,28.5,79.9,28.5c19.4,0,36.4-7.2,50.8-21.6c3.4-4.2,5.1-11,5.1-20.3
			c0-4.2-0.4-10.7-1.3-19.3c-0.9-8.7-1.3-15.3-1.3-20c0-15.2,3.8-22.8,11.4-22.8c2.1,0,3.4,0.2,3.8,0.6c4.6,1.7,14.4,14.4,29.2,38.1
			c0.4-0.4,0.6-1.1,0.6-1.9c0.4-6.8-3.4-19-11.4-36.8c-8-17.3-12.1-29.2-12.1-35.5c-3.8-14.4-17.1-25.6-40-33.6
			c-16.1-5.5-34.5-8.2-55.2-8.2C1749.5,1137.6,1738.6,1139.2,1728.2,1142.4z M1861.2,1115.4c0-2.5,0-4.2,0-5.1
			c-0.9,3.8-1.5,6.9-1.9,9.2c-0.4,2.3-0.6,4.1-0.6,5.4c0.8,0.9,1.5,1.3,1.9,1.3C1860.9,1121.6,1861.2,1118,1861.2,1115.4z"/>
	</g>
	<g>
		<g>
			<path class="st2" d="M998.3,752.7l-16.9-24.8l-18.7-31l-9.2-35.3l-14-33.1L918,598.8l-15-32.7l-10.5-34.8L881.4,495l-36.3-9.7
				l-29-21.6l-34.5-9.5l-34.7-9.2l-27.1-25.9l-37.7-2.5l-28.4-23.1l-25.9-12l22-20.8l36.2-6.4l33.9-11.5l29.7-20.4l32.2-15l32.7-14
				l32.9-13.6l35.5-13.7l9.6-37.7l11.9-34.1l23.3-28.8l5.6-37L953,98.1l12.1-34l19.6-30.5l13.5-26.7l9.7,28.5l25,28l16.5,32
				l3.3,38.1l18.3,31.2l19.4,30.6l15.1,32.6l8.5,38.1l34.3,16.7l32.9,14.4l36.6,6.5l33.8,12.5l31.5,17.6l33.6,12.9l31,18.7
				l30.4,16.5l-33.5,9l-29.8,20.9l-31.8,16.5l-34.2,11.1l-33.2,13.4l-30.4,19.6l-36.5,5.9l-25.9,24.7l-17.4,29.3l-23.2,28.9
				l-12.8,33.7l-17.4,31.5l-12.2,34l-13.2,33.5l-17.8,31.1L998.3,752.7z"/>
		</g>
		<g>
			<path class="st3" d="M990.1,375.6H989c-5.6,0-10.1-4.5-10.1-10.1v-94.6c0-5.6,4.5-10.1,10.1-10.1h1.2c5.6,0,10.1,4.5,10.1,10.1
				v94.6C1000.2,371.1,995.7,375.6,990.1,375.6z"/>
			<path class="st3" d="M1051.2,375.6h-1.2c-5.6,0-10.1-4.5-10.1-10.1v-94.6c0-5.6,4.5-10.1,10.1-10.1h1.2c5.6,0,10.1,4.5,10.1,10.1
				v94.6C1061.3,371.1,1056.8,375.6,1051.2,375.6z"/>
		</g>
	</g>
</g>
</svg>
