<?xml version="1.0" encoding="utf-8"?>
<!-- Generator: Adobe Illustrator 28.1.0, SVG Export Plug-In . SVG Version: 6.00 Build 0)  -->
<svg version="1.1" id="Calque_1" xmlns="http://www.w3.org/2000/svg" xmlns:xlink="http://www.w3.org/1999/xlink" x="0px" y="0px"
	 viewBox="0 0 2000 2000" style="enable-background:new 0 0 2000 2000;" xml:space="preserve">
<style type="text/css">
	.st0{fill:none;}
	.st1{fill:#F9F8E0;}
	.st2{font-family:'Immortal';}
	.st3{font-size:487.656px;}
	.st4{fill:#F08EB9;}
</style>
<g>
	<g>
		<rect x="-280.5" y="1233.8" class="st0" width="2561" height="334.1"/>
		<text transform="matrix(1 0 0 1 226.3517 1534.1626)" class="st1 st2 st3">Pixidia</text>
		<g>
			<path class="st1" d="M998.7,1010.5l-16.8-27.4l-18.2-32.2l-10.9-35.5l-14.6-33.8l-20.4-31.2l-14.5-32.2L873,800.5l-31.3-18.7
				l-35.1-10.4L776.1,751l-34.8-11l-37.4-14.7l39.5-10.6L772,690l36.1-8.9l34.5-12.2l28.5-25.1l36.8-9.3l18.6-32.9l11.3-35.3
				l15.4-33.4l16.2-33.1l16.5-33l12.7-29.4l15.8,28l17.8,32.4l9,36.4l22.7,30.1l11.9,35.1L1093,631l31.1,18.4l31.9,18.9l33.7,14.9
				l37,7.7l34,14.3l26.5,20.1l-29.5,13.1l-32,18.3l-33.4,15l-36.2,8.9l-33.6,14.7l-34.6,16.4l-9.8,37.9l-13.5,34.3l-17.4,32.6
				l-13.8,34.2l-18.2,32.2L998.7,1010.5z"/>
		</g>
	</g>
	<g>
		<path class="st4" d="M992,720.7L992,720.7c-4.5,0-8.2-3.7-8.2-8.2v-71.8c0-4.5,3.7-8.2,8.2-8.2l0,0c4.5,0,8.2,3.7,8.2,8.2v71.8
			C1000.2,717,996.5,720.7,992,720.7z"/>
		<path class="st4" d="M1038.9,720.7L1038.9,720.7c-4.5,0-8.2-3.7-8.2-8.2v-71.8c0-4.5,3.7-8.2,8.2-8.2l0,0c4.5,0,8.2,3.7,8.2,8.2
			v71.8C1047.1,717,1043.5,720.7,1038.9,720.7z"/>
	</g>
</g>
</svg>
