<?xml version="1.0" encoding="utf-8"?>
<!-- Generator: Adobe Illustrator 28.1.0, SVG Export Plug-In . SVG Version: 6.00 Build 0)  -->
<svg version="1.1" id="Calque_1" xmlns="http://www.w3.org/2000/svg" xmlns:xlink="http://www.w3.org/1999/xlink" x="0px" y="0px"
	 viewBox="0 0 2194 550" style="enable-background:new 0 0 2194 550;" xml:space="preserve">
<style type="text/css">
	.st0{fill:none;}
	.st1{enable-background:new    ;}
	.st2{fill:#F9F8E0;}
</style>
<rect x="-718.5" y="79.2" class="st0" width="3631" height="452.8"/>
<g class="st1">
	<path class="st2" d="M265.4,319.1c-34.5,0-66-8.1-94.5-24.2c-6.4-3.2-11.5-5.9-15.2-8c-3.7-2.1-6-4.3-6.9-6.6l4.8,72.6
		c0.5,9.7,1.1,21.7,2.1,36c0.9,14.3,1.8,31.1,2.8,50.5c-2.3,10.1-3.4,21.2-3.4,33.2c3.7,6.9,29.6,11.8,77.8,14.5l-37.3,30.4
		c-4.6-0.9-12.2-1.6-22.8-2.1c-10.6-0.5-24.2-0.7-40.7-0.7c-12,0-24.2,0.5-36.6,1.4c-12.4,0.9-24.9,1.8-37.3,2.8L36.1,521
		c-3.7,0-7.7-0.5-12.1-1.4c-4.4-0.9-9.1-1.8-14.2-2.8v-24.2l31.1-7.6c15.7-3.2,24-7.4,24.9-12.4c7.8-17,13.6-32.7,17.3-47
		c3.7-14.3,5.5-27.4,5.5-39.4c0-18.4-3-35.7-9-51.9c-9.7-24.9-14.5-58.3-14.5-100.3c0-5.1,0-11.1,0-18c0-7.4,0.2-15.9,0.7-25.6
		c0.5-10.1,0.8-18.9,1-26.3c0.2-7.4,0.3-13.6,0.3-18.7c0-3.7,0-7.1,0-10.4c0-3.2-0.2-6.2-0.7-9l-1.4-23.5
		c-1.4-12.9-3.7-21.2-6.9-24.9C54,72.8,35.8,68.6,3.6,65.4c3.2-2.7,5.9-5,8-6.8c2.1-1.8,4.7-4.1,8-6.8c0-0.5-0.8-1.6-2.4-3.4
		c-1.6-1.8-3.5-3.6-5.5-5.4c-2.1-1.8-3.8-3.5-5.2-5.1s-2.1-2.8-2.1-3.7c14.3,0.9,28.8,1.6,43.5,2.1C62.6,36.8,77.5,37,92.7,37
		c6,0,13.2-0.1,21.7-0.3c8.5-0.2,18.5-0.6,30-1c11-0.9,20.8-1.6,29.3-2.1c8.5-0.5,15.8-0.7,21.7-0.7c88.8,0,151.6,14,188.4,42.1
		c42.8,31.7,64.2,66.2,64.2,103.5c0,24.4-13.8,52.7-41.4,84.8C374.1,300.5,327,319.1,265.4,319.1z M203.4,68.8
		c-7.8,0-15.9,0.3-24.2,1s-17.1,2-26.3,3.8l-4.8,109.2c0,0.9,0,5.3,0,13.1c0,7.4,0.2,18.9,0.7,34.6c6.4,5.1,12.8,9.8,19,14.2
		c6.2,4.4,12.1,8.6,17.6,12.8c17.5,14.8,41.7,22.1,72.6,22.1c31.8,0,54.8-7.8,69.1-23.5c22.1-24.9,33.2-49.8,33.2-74.7
		c0-9.7-1.5-19.2-4.5-28.7c-3-9.4-7.3-19.2-12.8-29.4C320.9,87.1,274.4,68.8,203.4,68.8z"/>
	<path class="st2" d="M446.8,516.2l4.8-28.3c9.7-0.9,16.9-1.6,21.8-2.1c4.8-0.5,7.5-0.7,8-0.7c9.7-3.2,15.2-10.6,16.6-22.1
		c0-14.7,3.7-31.1,11.1-49.1l-9-42.2c-0.9-8.8-1.8-19.6-2.8-32.5c-0.9-12.9-2.3-27.9-4.1-44.9c-1.4,0-3.5-0.1-6.2-0.3
		c-2.8-0.2-6.2-0.6-10.4-1c-18.9-2.3-28.3-6.7-28.3-13.1c0-8.8,5.1-14.1,15.2-15.9c32.7-7.8,66.1-23.3,100.3-46.3
		c4.6,0,11.8,1.4,21.4,4.1c-3.2,11.1-6.1,25.6-8.6,43.6c-2.5,18-4.3,39.4-5.2,64.3c-0.5,9.2-0.9,18.4-1.4,27.7
		c-0.5,9.2-0.7,18.2-0.7,27c0,47.5,2.1,78.1,6.2,92c1.8,2.8,10.6,5.1,26.3,6.9h4.1c-0.5,0.5-0.9,0.7-1.4,0.7
		c0.5,0.5,1.6,0.7,3.5,0.7l13.8,27.7L446.8,516.2z M539.4,164.9l-24.2-52.5l-51.9-23.5l51.9-24.2l24.2-52.5l24.2,52.5l52.5,24.2
		l-52.5,23.5L539.4,164.9z"/>
	<path class="st2" d="M879.6,418c8.3,12.9,15.8,23.5,22.5,31.8c6.7,8.3,12.3,14.3,16.9,18c12.9,10.1,32.5,15.9,58.8,17.3v31.8
		c-10.1-1.4-22.5-2.3-37-2.8c-14.5-0.5-31.5-0.7-50.8-0.7c-18,0-33.3,0.2-46,0.7c-12.7,0.5-22.9,1.4-30.8,2.8l-6.9-32.5
		c8.8-0.5,16-0.8,21.8-1c5.8-0.2,9.8-0.3,12.1-0.3c-6.5-11.1-13.5-22.9-21.1-35.6c-7.6-12.7-16-26.4-25.2-41.1
		c-5.5,5.1-11.3,10.4-17.3,15.9c-6,5.5-12.2,11.5-18.7,18c-19.4,20.3-29,32.7-29,37.3c5.1,0,11.9,1,20.4,3.1
		c8.5,2.1,14.6,3.1,18.3,3.1l4.1,31.1c-12-0.9-24.1-1.6-36.3-2.1c-12.2-0.5-25-0.7-38.4-0.7c-10.6,0-21.6,0.2-32.8,0.7
		c-11.3,0.5-23.2,1.1-35.6,2.1l2.1-30.4c7.4-1.4,13.2-2.4,17.6-3.1c4.4-0.7,7.7-1.5,10-2.4c1.8-0.9,12.2-10,31.1-27.3
		c18.9-17.3,47-42.7,84.4-76.4c-33.2-56.7-59-90.8-77.4-102.3c-5.1-3.2-24.9-6.9-59.5-11.1l4.1-29c11.1,0.9,21.4,1.4,31.1,1.4
		c10.1,0,19.6,0,28.3,0c24.4,0,45.2-0.5,62.2-1.4c17-0.9,30.9-1.8,41.5-2.8l9,31.1c-7.8,0.5-14.1,1-18.7,1.7
		c-4.6,0.7-8.1,1.3-10.4,1.7c-0.5,0-0.7,0.2-0.7,0.7c0,6,13.4,27.4,40.1,64.3c34.1-30.4,51.2-50.5,51.2-60.2c0-2.8-3.2-4.6-9.7-5.5
		l-36.6-4.1l12.4-27.7c20.3,1.4,36.8,2.3,49.4,2.8c12.7,0.5,21.5,0.7,26.6,0.7c14.7,0,35-1.4,60.8-4.1V261
		c-19.4,0.5-43.8,13.8-73.3,40.1c-2.8,2.8-9.2,9.1-19.4,19c-10.1,9.9-23.7,23.6-40.8,41.1L879.6,418z"/>
	<path class="st2" d="M988.8,516.2l4.8-28.3c9.7-0.9,16.9-1.6,21.8-2.1c4.8-0.5,7.5-0.7,8-0.7c9.7-3.2,15.2-10.6,16.6-22.1
		c0-14.7,3.7-31.1,11.1-49.1l-9-42.2c-0.9-8.8-1.8-19.6-2.8-32.5c-0.9-12.9-2.3-27.9-4.1-44.9c-1.4,0-3.5-0.1-6.2-0.3
		c-2.8-0.2-6.2-0.6-10.4-1c-18.9-2.3-28.3-6.7-28.3-13.1c0-8.8,5.1-14.1,15.2-15.9c32.7-7.8,66.1-23.3,100.3-46.3
		c4.6,0,11.8,1.4,21.4,4.1c-3.2,11.1-6.1,25.6-8.6,43.6c-2.5,18-4.3,39.4-5.2,64.3c-0.5,9.2-0.9,18.4-1.4,27.7
		c-0.5,9.2-0.7,18.2-0.7,27c0,47.5,2.1,78.1,6.2,92c1.8,2.8,10.6,5.1,26.3,6.9h4.1c-0.5,0.5-0.9,0.7-1.4,0.7
		c0.5,0.5,1.6,0.7,3.5,0.7l13.8,27.7L988.8,516.2z M1081.5,164.9l-24.2-52.5l-51.9-23.5l51.9-24.2l24.2-52.5l24.2,52.5l52.5,24.2
		l-52.5,23.5L1081.5,164.9z"/>
	<path class="st2" d="M1447.9,437.4c-13.8,50.2-55.1,75.4-123.8,75.4c-38.7,0-71.7-10.8-98.9-32.5c-29-22.1-43.6-52.5-43.6-91.3
		c0-34.1,9.4-62.2,28.3-84.4c30-36.9,72.8-61.5,128.6-74c10.6-2.3,19.2-4.1,25.9-5.5c6.7-1.4,11.9-2.1,15.6-2.1
		c16.6,0,41.7,3.2,75.4,9.7c0,3.2,0.5,5.8,1.4,7.6v-47.7c-0.5-6-1.4-12.1-2.8-18.3s-3.2-13-5.5-20.4c-2.8-0.9-6.7-1.4-11.8-1.4
		c-3.7,0-8.4,0.3-14.2,1c-5.8,0.7-13,2.2-21.8,4.5l-2.8-27c56.7-19.8,97.7-37.1,123.1-51.9l22.1,7.6c-2.3,9.7-4.4,20.1-6.2,31.1
		c-1.8,11.1-3.5,22.8-4.8,35.3c-1.8,10.6-4.6,31.1-8.3,61.5l-2.8,177c-0.9,17.1-0.7,33.3,0.7,48.7c1.4,15.4,3.2,30.1,5.5,43.9
		c0.5,0.5,0,2.8-1.4,6.9c-2.3,4.1-0.9,6.2,4.1,6.2c4.6,0,9.4-1.1,14.5-3.5v31.8c-27.2,7.8-46.6,11.8-58.1,11.8
		c-2.3,0-5.2-0.8-8.6-2.4c-3.5-1.6-6.1-2.4-8-2.4C1458,532.8,1450.7,501,1447.9,437.4z M1411.9,276.3c-11.5-2.3-25.4-4.6-41.5-6.9
		c-13.8-1.4-21.7-2.1-23.5-2.1c-12.4,0-24.3,1.7-35.6,5.2c-11.3,3.5-21.6,9.1-30.8,16.9c-21.7,15.7-32.5,35.5-32.5,59.5
		c0,35.5,11.3,63.8,33.9,85c22.1,20.7,51.2,31.1,87.1,31.1c36.4,0,62.7-21.2,78.8-63.6c-0.5-6.9-0.6-15-0.3-24.2
		c0.2-9.2,0.6-19.6,1-31.1l2.1-53.9c0-1.8-3.5-4.1-10.4-6.9C1432.9,281.6,1423.5,278.6,1411.9,276.3z"/>
	<path class="st2" d="M1562,516.2l4.8-28.3c9.7-0.9,16.9-1.6,21.8-2.1c4.8-0.5,7.5-0.7,8-0.7c9.7-3.2,15.2-10.6,16.6-22.1
		c0-14.7,3.7-31.1,11.1-49.1l-9-42.2c-0.9-8.8-1.8-19.6-2.8-32.5c-0.9-12.9-2.3-27.9-4.1-44.9c-1.4,0-3.5-0.1-6.2-0.3
		c-2.8-0.2-6.2-0.6-10.4-1c-18.9-2.3-28.3-6.7-28.3-13.1c0-8.8,5.1-14.1,15.2-15.9c32.7-7.8,66.1-23.3,100.3-46.3
		c4.6,0,11.8,1.4,21.4,4.1c-3.2,11.1-6.1,25.6-8.6,43.6c-2.5,18-4.3,39.4-5.2,64.3c-0.5,9.2-0.9,18.4-1.4,27.7
		c-0.5,9.2-0.7,18.2-0.7,27c0,47.5,2.1,78.1,6.2,92c1.8,2.8,10.6,5.1,26.3,6.9h4.1c-0.5,0.5-0.9,0.7-1.4,0.7
		c0.5,0.5,1.6,0.7,3.5,0.7l13.8,27.7L1562,516.2z M1654.6,164.9l-24.2-52.5l-51.9-23.5l51.9-24.2l24.2-52.5l24.2,52.5l52.5,24.2
		l-52.5,23.5L1654.6,164.9z"/>
	<path class="st2" d="M2117.2,212.6c-5.1,16.1-8.8,32.1-11.1,47.9c-2.3,15.9-3.9,31.4-4.8,46.6c-0.5,4.1-0.7,13.3-0.7,27.6
		c0,13.8,0,32.9,0,57.2c0,35.9,0.7,58.6,2.1,68.3c7.4,17,17,25.5,29,25.5c9.2,0,19.8-4.8,31.8-14.5l5.5,16.6
		c-26.7,22.6-56.2,33.9-88.5,33.9c-2.3,0-5.2-0.1-8.6-0.3c-3.5-0.2-7.5-0.6-12.1-1l-10.4-2.1c-13.4,0-20.7-27-22.1-80.9
		c-13.8,50.2-55.1,75.4-123.8,75.4c-38.7,0-71.7-10.8-98.9-32.5c-29-22.1-43.6-52.5-43.6-91.3c0-47,21.9-86.9,65.7-119.6
		c40.6-30.9,84.8-46.3,132.7-46.3c27.2,0,50.9,9.5,71.2,28.3V235c0.9,0,1.7-0.1,2.4-0.3c0.7-0.2,1.5-0.3,2.4-0.3
		c18.4-6.4,38.3-15.9,59.5-28.6L2117.2,212.6z M1890.7,272.5c-11.3,3.5-21.6,9.1-30.8,16.9c-21.7,15.7-32.5,35.5-32.5,59.5
		c0,35.5,11.3,63.8,33.9,85c22.1,20.7,51.2,31.1,87.1,31.1c21.2,0,39.6-7.8,55.3-23.5c3.7-4.6,5.5-12,5.5-22.1
		c0-4.6-0.5-11.6-1.4-21.1c-0.9-9.4-1.4-16.7-1.4-21.8c0-16.6,4.1-24.9,12.4-24.9c2.3,0,3.7,0.2,4.1,0.7
		c5.1,1.8,15.7,15.7,31.8,41.5c0.5-0.5,0.7-1.1,0.7-2.1c0.5-7.4-3.7-20.7-12.4-40.1c-8.8-18.9-13.1-31.8-13.1-38.7
		c-4.1-15.7-18.7-27.9-43.6-36.6c-17.5-6-37.6-9-60.2-9C1913.9,267.3,1902,269,1890.7,272.5z M2035.6,243.1c0-2.8,0-4.6,0-5.5
		c-0.9,4.1-1.6,7.5-2.1,10c-0.5,2.5-0.7,4.5-0.7,5.9c0.9,0.9,1.6,1.4,2.1,1.4C2035.3,249.8,2035.6,245.8,2035.6,243.1z"/>
</g>
</svg>
