<?xml version="1.0" encoding="utf-8"?>
<!-- Generator: Adobe Illustrator 28.1.0, SVG Export Plug-In . SVG Version: 6.00 Build 0)  -->
<svg version="1.1" id="Calque_1" xmlns="http://www.w3.org/2000/svg" xmlns:xlink="http://www.w3.org/1999/xlink" x="0px" y="0px"
	 viewBox="0 0 2000 1392" style="enable-background:new 0 0 2000 1392;" xml:space="preserve">
<style type="text/css">
	.st0{fill:none;}
	.st1{fill:#F9F8E0;}
	.st2{font-family:'Immortal';}
	.st3{font-size:634.3697px;}
	.st4{fill:#F08EB9;}
</style>
<g>
	<rect x="-665.8" y="965.1" class="st0" width="3331.5" height="434.7"/>
	<text transform="matrix(1 0 0 1 -6.4045 1355.8683)" class="st1 st2 st3">Pixidia</text>
	<g>
		<g>
			<path class="st1" d="M998.3,752.7l-16.9-24.8l-18.7-31l-9.2-35.3l-14-33.1L918,598.8l-15-32.7l-10.5-34.8l-11.1-36.3l-36.3-9.7
				l-29-21.6l-34.5-9.5l-34.7-9.2l-27.1-25.9l-37.7-2.5l-28.4-23.1l-25.9-12l22-20.8l36.2-6.4l33.9-11.5l29.7-20.4l32.2-15l32.7-14
				l32.9-13.6l35.5-13.7l9.6-37.7l11.9-34.1l23.3-28.8l5.6-37L953,98.1l12.1-34l19.6-30.5l13.5-26.7l9.7,28.5l25,28l16.5,32
				l3.3,38.1l18.3,31.2l19.4,30.6l15.1,32.6l8.5,38.1l34.3,16.7l32.9,14.4l36.6,6.5l33.8,12.5l31.5,17.6l33.6,12.9l31,18.7
				l30.4,16.5l-33.5,9l-29.8,20.9l-31.8,16.5l-34.2,11.1l-33.2,13.4l-30.4,19.6l-36.5,5.9l-25.9,24.7l-17.4,29.3l-23.2,28.9
				l-12.8,33.7l-17.4,31.5l-12.2,34l-13.2,33.5l-17.8,31.1L998.3,752.7z"/>
		</g>
		<g>
			<path class="st4" d="M990.1,375.6H989c-5.6,0-10.1-4.5-10.1-10.1v-94.6c0-5.6,4.5-10.1,10.1-10.1h1.2c5.6,0,10.1,4.5,10.1,10.1
				v94.6C1000.2,371.1,995.7,375.6,990.1,375.6z"/>
			<path class="st4" d="M1051.2,375.6h-1.2c-5.6,0-10.1-4.5-10.1-10.1v-94.6c0-5.6,4.5-10.1,10.1-10.1h1.2c5.6,0,10.1,4.5,10.1,10.1
				v94.6C1061.3,371.1,1056.8,375.6,1051.2,375.6z"/>
		</g>
	</g>
</g>
</svg>
