<?xml version="1.0" encoding="utf-8"?>
<!-- Generator: Adobe Illustrator 28.1.0, SVG Export Plug-In . SVG Version: 6.00 Build 0)  -->
<svg version="1.1" id="Calque_1" xmlns="http://www.w3.org/2000/svg" xmlns:xlink="http://www.w3.org/1999/xlink" x="0px" y="0px"
	 viewBox="0 0 840 840" style="enable-background:new 0 0 840 840;" xml:space="preserve">
<style type="text/css">
	.st0{fill:#F9F8E0;}
	.st1{fill:#F08EB9;}
</style>
<g>
	<g>
		<path class="st0" d="M418.1,830.2l-16.7-23.3l-18.7-30.1l-8.3-34.9l-13.5-32.5l-21.9-28.6l-14.6-32l-9.7-34.3l-9.3-34.4
			l-20.8-28.4L257,530.1l-34.1-8.6l-34.2-8.3l-25.9-26.7l-37.6-0.9L98,461.9L68.5,443l-37.8-0.4L5.5,421.9l31.3-7.8l28.8-20.6
			l31.5-14.7l32.1-13.5l32.3-13.1l32.9-11.6l28-22.1l29.9-18.1l37.4-6.8l5.4-38.4l19.7-29.6l11.5-33.4l19.8-29.6l19.6-29.7l14-32.3
			l3.7-37l13.2-32.7l21.4-22l12,26.3L449.6,65l14.8,31.9l6.1,35.9l14.3,32.1l15.4,31.6l24.1,27.6l17.5,30.7L553,287l32,11.7
			l30.1,18.7l30.5,17.9l29.8,19.3l35.1,7.9l32.9,12.7l30.2,18.5l31.3,16l36.4,12.3l-38.2,7.7l-26.4,26.7L743,466.7l-36,5.2
			l-30.8,16.7L643,500.3l-30.5,17.5l-31,16.3l-35.1,12.3L532.6,581L522,614.8L510.2,648l-15.1,31.8l-23.6,27.8l-1.7,37.9L449,774.7
			l-23.6,27.4L418.1,830.2z"/>
	</g>
	<g>
		<path class="st1" d="M410.2,415.2h-3.3c-5.6,0-10.1-4.5-10.1-10.1V299c0-5.6,4.5-10.1,10.1-10.1h3.3c5.6,0,10.1,4.5,10.1,10.1
			v106.2C420.2,410.7,415.7,415.2,410.2,415.2z"/>
		<path class="st1" d="M477.4,415.2h-3.3c-5.6,0-10.1-4.5-10.1-10.1V299c0-5.6,4.5-10.1,10.1-10.1h3.3c5.6,0,10.1,4.5,10.1,10.1
			v106.2C487.5,410.7,483,415.2,477.4,415.2z"/>
	</g>
</g>
</svg>
